<svg xmlns="http://www.w3.org/2000/svg" fill="none" viewBox="5 7.42 29.5 152.16">
<path fill-rule="evenodd" clip-rule="evenodd" d="M5.5 83.4997L5.5 32.7647L34 8.5L34 83.4997L34 83.5001L34 158.5L5.5 134.235L5.5 83.4997Z" fill="#89CBCB"/>
<path d="M5.5 32.7647L5.17587 32.384L5 32.5337L5 32.7647L5.5 32.7647ZM5.5 83.4997L5 83.4997L5.5 83.4997ZM34 8.5L34.5 8.5L34.5 7.41763L33.6759 8.11929L34 8.5ZM34 158.5L33.6759 158.88L34.5 159.582L34.5 158.5L34 158.5ZM5.5 134.235L5 134.235L5 134.466L5.17587 134.616L5.5 134.235ZM5 32.7647L5 83.4997L6 83.4997L6 32.7647L5 32.7647ZM33.6759 8.11929L5.17587 32.384L5.82413 33.1454L34.3241 8.88071L33.6759 8.11929ZM34.5 83.4997L34.5 8.5L33.5 8.5L33.5 83.4997L34.5 83.4997ZM33.5 83.4997L33.5 83.5001L34.5 83.5001L34.5 83.4997L33.5 83.4997ZM33.5 83.5001L33.5 158.5L34.5 158.5L34.5 83.5001L33.5 83.5001ZM34.3241 158.119L5.82413 133.854L5.17587 134.616L33.6759 158.88L34.3241 158.119ZM6 134.235L6 83.4997L5 83.4997L5 134.235L6 134.235Z" fill="black"/>
<path d="M25.5 113.793L15 113.793L15 109.083C15 107.873 15.245 106.943 15.735 106.293C16.215 105.643 16.875 105.318 17.715 105.318C18.285 105.318 18.765 105.448 19.155 105.708C19.545 105.958 19.845 106.298 20.055 106.728C20.265 107.158 20.37 107.623 20.37 108.123L19.92 107.853C19.92 107.253 20.025 106.723 20.235 106.263C20.445 105.803 20.755 105.438 21.165 105.168C21.565 104.898 22.065 104.763 22.665 104.763C23.565 104.763 24.265 105.103 24.765 105.783C25.255 106.453 25.5 107.453 25.5 108.783L25.5 113.793ZM24.285 112.293L24.285 108.843C24.285 108.013 24.145 107.378 23.865 106.938C23.585 106.498 23.145 106.278 22.545 106.278C21.935 106.278 21.49 106.498 21.21 106.938C20.93 107.378 20.79 108.013 20.79 108.843L20.79 112.428L19.575 112.428L19.575 109.218C19.575 108.458 19.435 107.868 19.155 107.448C18.875 107.028 18.455 106.818 17.895 106.818C17.335 106.818 16.915 107.028 16.635 107.448C16.355 107.868 16.215 108.458 16.215 109.218L16.215 112.293L24.285 112.293ZM25.5 102.44L15 102.44L15 98.3451C15 97.4251 15.145 96.6401 15.435 95.9901C15.725 95.3401 16.145 94.8401 16.695 94.4901C17.245 94.1401 17.9 93.9651 18.66 93.9651C19.42 93.9651 20.075 94.1401 20.625 94.4901C21.165 94.8401 21.58 95.3401 21.87 95.9901C22.16 96.6401 22.305 97.4251 22.305 98.3451L22.305 101.615L21.615 100.94L25.5 100.94L25.5 102.44ZM25.5 95.4201L21.69 98.0901L21.69 96.4851L25.5 93.7851L25.5 95.4201ZM21.765 100.94L21.03 101.615L21.03 98.3901C21.03 97.4301 20.825 96.7051 20.415 96.2151C19.995 95.7151 19.41 95.4651 18.66 95.4651C17.91 95.4651 17.33 95.7151 16.92 96.2151C16.51 96.7051 16.305 97.4301 16.305 98.3901L16.305 101.615L15.555 100.94L21.765 100.94ZM19.53 90.1767L19.53 84.7767L20.805 84.7767L20.805 90.1767L19.53 90.1767ZM24.195 90.0417L24.195 83.9217L25.5 83.9217L25.5 91.5417L15 91.5417L15 84.1317L16.305 84.1317L16.305 90.0417L24.195 90.0417ZM25.5 83.0829L15 78.3279L15 76.8429L25.5 72.0729L25.5 73.6479L15.84 77.8929L15.84 77.2929L25.5 81.5379L25.5 83.0829ZM22.875 81.0579L21.675 80.6529L21.675 74.7429L22.875 74.3079L22.875 81.0579ZM25.5 68.9489L16.305 68.9489L16.305 72.5489L15 72.5489L15 63.8639L16.305 63.8639L16.305 67.4639L25.5 67.4639L25.5 68.9489ZM15 54.7002L15 53.2002L25.5 53.2002L25.5 54.7002L15 54.7002ZM25.5 60.7302L25.5 62.2302L15 62.2302L15 60.7302L25.5 60.7302ZM20.82 54.5652L20.82 60.8802L19.515 60.8802L19.515 54.5652L20.82 54.5652Z" fill="white"/>
</svg>