<svg xmlns="http://www.w3.org/2000/svg" fill="none" viewBox="5 3.38 29.5 160.24">
<path fill-rule="evenodd" clip-rule="evenodd" d="M5.5 83.4997L5.5 30.0588L34 4.5L34 83.4998L34 83.5001L34 162.5L5.5 136.941L5.5 83.4997Z" fill="#F2EE8F"/>
<path d="M5.5 30.0588L5.16618 29.6866L5 29.8356L5 30.0588L5.5 30.0588ZM5.5 83.4997L5 83.4997L5.5 83.4997ZM34 4.5L34.5 4.5L34.5 3.37999L33.6662 4.12776L34 4.5ZM34 83.5001L33.5 83.5001L34 83.5001ZM34 162.5L33.6662 162.872L34.5 163.62L34.5 162.5L34 162.5ZM5.5 136.941L5 136.941L5 137.164L5.16618 137.313L5.5 136.941ZM5 30.0588L5 83.4997L6 83.4997L6 30.0588L5 30.0588ZM33.6662 4.12776L5.16618 29.6866L5.83382 30.431L34.3338 4.87224L33.6662 4.12776ZM34.5 83.4998L34.5 4.5L33.5 4.5L33.5 83.4998L34.5 83.4998ZM33.5 83.4998L33.5 83.5001L34.5 83.5001L34.5 83.4998L33.5 83.4998ZM33.5 83.5001L33.5 162.5L34.5 162.5L34.5 83.5001L33.5 83.5001ZM34.3338 162.128L5.83382 136.569L5.16618 137.313L33.6662 162.872L34.3338 162.128ZM6 136.941L6 83.4997L5 83.4997L5 136.941L6 136.941Z" fill="black"/>
<path d="M25.62 130.499C25.62 131.299 25.49 132.039 25.23 132.719C24.96 133.389 24.585 133.974 24.105 134.474C23.615 134.964 23.045 135.349 22.395 135.629C21.745 135.909 21.03 136.049 20.25 136.049C19.47 136.049 18.755 135.909 18.105 135.629C17.455 135.349 16.89 134.959 16.41 134.459C15.92 133.959 15.545 133.374 15.285 132.704C15.015 132.024 14.88 131.284 14.88 130.484C14.88 129.674 15.02 128.929 15.3 128.249C15.57 127.559 15.975 126.974 16.515 126.494L17.46 127.469C17.04 127.869 16.73 128.319 16.53 128.819C16.32 129.319 16.215 129.854 16.215 130.424C16.215 131.014 16.315 131.564 16.515 132.074C16.715 132.574 16.995 133.009 17.355 133.379C17.715 133.749 18.145 134.039 18.645 134.249C19.135 134.449 19.67 134.549 20.25 134.549C20.83 134.549 21.37 134.449 21.87 134.249C22.36 134.039 22.785 133.749 23.145 133.379C23.505 133.009 23.785 132.574 23.985 132.074C24.185 131.564 24.285 131.014 24.285 130.424C24.285 129.854 24.185 129.319 23.985 128.819C23.775 128.319 23.455 127.869 23.025 127.469L23.97 126.494C24.51 126.974 24.92 127.559 25.2 128.249C25.48 128.929 25.62 129.679 25.62 130.499ZM25.62 119.834C25.62 120.634 25.485 121.379 25.215 122.069C24.945 122.749 24.57 123.339 24.09 123.839C23.6 124.339 23.03 124.729 22.38 125.009C21.73 125.289 21.02 125.429 20.25 125.429C19.48 125.429 18.77 125.289 18.12 125.009C17.47 124.729 16.905 124.339 16.425 123.839C15.935 123.339 15.555 122.749 15.285 122.069C15.015 121.389 14.88 120.644 14.88 119.834C14.88 119.034 15.015 118.299 15.285 117.629C15.545 116.949 15.92 116.359 16.41 115.859C16.89 115.349 17.455 114.959 18.105 114.689C18.755 114.409 19.47 114.269 20.25 114.269C21.03 114.269 21.745 114.409 22.395 114.689C23.045 114.959 23.615 115.349 24.105 115.859C24.585 116.359 24.96 116.949 25.23 117.629C25.49 118.299 25.62 119.034 25.62 119.834ZM24.285 119.834C24.285 119.254 24.185 118.719 23.985 118.229C23.785 117.729 23.505 117.299 23.145 116.939C22.775 116.569 22.345 116.284 21.855 116.084C21.365 115.874 20.83 115.769 20.25 115.769C19.67 115.769 19.135 115.874 18.645 116.084C18.155 116.284 17.73 116.569 17.37 116.939C17 117.299 16.715 117.729 16.515 118.229C16.315 118.719 16.215 119.254 16.215 119.834C16.215 120.424 16.315 120.969 16.515 121.469C16.715 121.959 17 122.389 17.37 122.759C17.73 123.129 18.155 123.419 18.645 123.629C19.135 123.829 19.67 123.929 20.25 123.929C20.83 123.929 21.365 123.829 21.855 123.629C22.345 123.419 22.775 123.129 23.145 122.759C23.505 122.389 23.785 121.959 23.985 121.469C24.185 120.969 24.285 120.424 24.285 119.834ZM25.5 111.976L15 111.976L15 110.746L23.625 103.801L23.625 104.446L15 104.446L15 102.946L25.5 102.946L25.5 104.176L16.875 111.121L16.875 110.476L25.5 110.476L25.5 111.976ZM25.5 99.8034L15 99.8034L15 98.5734L23.625 91.6284L23.625 92.2734L15 92.2734L15 90.7734L25.5 90.7734L25.5 92.0034L16.875 98.9484L16.875 98.3034L25.5 98.3034L25.5 99.8034ZM19.53 86.2656L19.53 80.8656L20.805 80.8656L20.805 86.2656L19.53 86.2656ZM24.195 86.1306L24.195 80.0106L25.5 80.0106L25.5 87.6306L15 87.6306L15 80.2206L16.305 80.2206L16.305 86.1306L24.195 86.1306ZM25.62 72.9014C25.62 73.7014 25.49 74.4414 25.23 75.1214C24.96 75.7914 24.585 76.3764 24.105 76.8764C23.615 77.3664 23.045 77.7514 22.395 78.0314C21.745 78.3114 21.03 78.4514 20.25 78.4514C19.47 78.4514 18.755 78.3114 18.105 78.0314C17.455 77.7514 16.89 77.3614 16.41 76.8614C15.92 76.3614 15.545 75.7764 15.285 75.1064C15.015 74.4264 14.88 73.6864 14.88 72.8864C14.88 72.0764 15.02 71.3314 15.3 70.6514C15.57 69.9614 15.975 69.3764 16.515 68.8964L17.46 69.8714C17.04 70.2714 16.73 70.7214 16.53 71.2214C16.32 71.7214 16.215 72.2564 16.215 72.8264C16.215 73.4164 16.315 73.9664 16.515 74.4764C16.715 74.9764 16.995 75.4114 17.355 75.7814C17.715 76.1514 18.145 76.4414 18.645 76.6514C19.135 76.8514 19.67 76.9514 20.25 76.9514C20.83 76.9514 21.37 76.8514 21.87 76.6514C22.36 76.4414 22.785 76.1514 23.145 75.7814C23.505 75.4114 23.785 74.9764 23.985 74.4764C24.185 73.9664 24.285 73.4164 24.285 72.8264C24.285 72.2564 24.185 71.7214 23.985 71.2214C23.775 70.7214 23.455 70.2714 23.025 69.8714L23.97 68.8964C24.51 69.3764 24.92 69.9614 25.2 70.6514C25.48 71.3314 25.62 72.0814 25.62 72.9014ZM25.5 64.7887L16.305 64.7887L16.305 68.3887L15 68.3887L15 59.7037L16.305 59.7037L16.305 63.3037L25.5 63.3037L25.5 64.7887ZM25.5 58.07L15 58.07L15 56.57L25.5 56.57L25.5 58.07ZM25.62 48.6865C25.62 49.4865 25.485 50.2315 25.215 50.9215C24.945 51.6015 24.57 52.1915 24.09 52.6915C23.6 53.1915 23.03 53.5815 22.38 53.8615C21.73 54.1415 21.02 54.2815 20.25 54.2815C19.48 54.2815 18.77 54.1415 18.12 53.8615C17.47 53.5815 16.905 53.1915 16.425 52.6915C15.935 52.1915 15.555 51.6015 15.285 50.9215C15.015 50.2415 14.88 49.4965 14.88 48.6865C14.88 47.8865 15.015 47.1515 15.285 46.4815C15.545 45.8015 15.92 45.2115 16.41 44.7115C16.89 44.2015 17.455 43.8115 18.105 43.5415C18.755 43.2615 19.47 43.1215 20.25 43.1215C21.03 43.1215 21.745 43.2615 22.395 43.5415C23.045 43.8115 23.615 44.2015 24.105 44.7115C24.585 45.2115 24.96 45.8015 25.23 46.4815C25.49 47.1515 25.62 47.8865 25.62 48.6865ZM24.285 48.6865C24.285 48.1065 24.185 47.5715 23.985 47.0815C23.785 46.5815 23.505 46.1515 23.145 45.7915C22.775 45.4215 22.345 45.1365 21.855 44.9365C21.365 44.7265 20.83 44.6215 20.25 44.6215C19.67 44.6215 19.135 44.7265 18.645 44.9365C18.155 45.1365 17.73 45.4215 17.37 45.7915C17 46.1515 16.715 46.5815 16.515 47.0815C16.315 47.5715 16.215 48.1065 16.215 48.6865C16.215 49.2765 16.315 49.8215 16.515 50.3215C16.715 50.8115 17 51.2415 17.37 51.6115C17.73 51.9815 18.155 52.2715 18.645 52.4815C19.135 52.6815 19.67 52.7815 20.25 52.7815C20.83 52.7815 21.365 52.6815 21.855 52.4815C22.345 52.2715 22.775 51.9815 23.145 51.6115C23.505 51.2415 23.785 50.8115 23.985 50.3215C24.185 49.8215 24.285 49.2765 24.285 48.6865ZM25.5 40.8288L15 40.8288L15 39.5988L23.625 32.6538L23.625 33.2988L15 33.2988L15 31.7988L25.5 31.7988L25.5 33.0288L16.875 39.9738L16.875 39.3288L25.5 39.3288L25.5 40.8288Z" fill="white"/>
</svg>