<svg xmlns="http://www.w3.org/2000/svg" fill="none" viewBox="5 7.42 29.5 152.16">
<path fill-rule="evenodd" clip-rule="evenodd" d="M5.5 83.4997L5.5 32.7647L34 8.5L34 83.4997L34 83.5001L34 158.5L5.5 134.235L5.5 83.4997Z" fill="#F6B31C"/>
<path d="M5.5 32.7647L5.17587 32.384L5 32.5337L5 32.7647L5.5 32.7647ZM5.5 83.4997L5 83.4997L5.5 83.4997ZM34 8.5L34.5 8.5L34.5 7.41763L33.6759 8.11929L34 8.5ZM34 158.5L33.6759 158.88L34.5 159.582L34.5 158.5L34 158.5ZM5.5 134.235L5 134.235L5 134.466L5.17587 134.616L5.5 134.235ZM5 32.7647L5 83.4997L6 83.4997L6 32.7647L5 32.7647ZM33.6759 8.11929L5.17587 32.384L5.82413 33.1454L34.3241 8.88071L33.6759 8.11929ZM34.5 83.4997L34.5 8.5L33.5 8.5L33.5 83.4997L34.5 83.4997ZM33.5 83.4997L33.5 83.5001L34.5 83.5001L34.5 83.4997L33.5 83.4997ZM33.5 83.5001L33.5 158.5L34.5 158.5L34.5 83.5001L33.5 83.5001ZM34.3241 158.119L5.82413 133.854L5.17587 134.616L33.6759 158.88L34.3241 158.119ZM6 134.235L6 83.4997L5 83.4997L5 134.235L6 134.235Z" fill="black"/>
<path d="M25.62 98.5654C25.62 99.3654 25.49 100.105 25.23 100.785C24.96 101.455 24.585 102.04 24.105 102.54C23.615 103.03 23.045 103.415 22.395 103.695C21.745 103.975 21.03 104.115 20.25 104.115C19.47 104.115 18.755 103.975 18.105 103.695C17.455 103.415 16.89 103.025 16.41 102.525C15.92 102.025 15.545 101.44 15.285 100.77C15.015 100.09 14.88 99.3504 14.88 98.5504C14.88 97.7404 15.02 96.9954 15.3 96.3154C15.57 95.6254 15.975 95.0404 16.515 94.5604L17.46 95.5354C17.04 95.9354 16.73 96.3854 16.53 96.8854C16.32 97.3854 16.215 97.9204 16.215 98.4904C16.215 99.0804 16.315 99.6304 16.515 100.14C16.715 100.64 16.995 101.075 17.355 101.445C17.715 101.815 18.145 102.105 18.645 102.315C19.135 102.515 19.67 102.615 20.25 102.615C20.83 102.615 21.37 102.515 21.87 102.315C22.36 102.105 22.785 101.815 23.145 101.445C23.505 101.075 23.785 100.64 23.985 100.14C24.185 99.6304 24.285 99.0804 24.285 98.4904C24.285 97.9204 24.185 97.3854 23.985 96.8854C23.775 96.3854 23.455 95.9354 23.025 95.5354L23.97 94.5604C24.51 95.0404 24.92 95.6254 25.2 96.3154C25.48 96.9954 25.62 97.7454 25.62 98.5654ZM25.62 87.9003C25.62 88.7003 25.485 89.4453 25.215 90.1353C24.945 90.8153 24.57 91.4053 24.09 91.9053C23.6 92.4053 23.03 92.7953 22.38 93.0753C21.73 93.3553 21.02 93.4953 20.25 93.4953C19.48 93.4953 18.77 93.3553 18.12 93.0753C17.47 92.7953 16.905 92.4053 16.425 91.9053C15.935 91.4053 15.555 90.8153 15.285 90.1353C15.015 89.4553 14.88 88.7103 14.88 87.9003C14.88 87.1003 15.015 86.3653 15.285 85.6953C15.545 85.0153 15.92 84.4253 16.41 83.9253C16.89 83.4153 17.455 83.0253 18.105 82.7553C18.755 82.4753 19.47 82.3353 20.25 82.3353C21.03 82.3353 21.745 82.4753 22.395 82.7553C23.045 83.0253 23.615 83.4153 24.105 83.9253C24.585 84.4253 24.96 85.0153 25.23 85.6953C25.49 86.3653 25.62 87.1003 25.62 87.9003ZM24.285 87.9003C24.285 87.3203 24.185 86.7853 23.985 86.2953C23.785 85.7953 23.505 85.3653 23.145 85.0053C22.775 84.6353 22.345 84.3503 21.855 84.1503C21.365 83.9403 20.83 83.8353 20.25 83.8353C19.67 83.8353 19.135 83.9403 18.645 84.1503C18.155 84.3503 17.73 84.6353 17.37 85.0053C17 85.3653 16.715 85.7953 16.515 86.2953C16.315 86.7853 16.215 87.3203 16.215 87.9003C16.215 88.4903 16.315 89.0353 16.515 89.5353C16.715 90.0253 17 90.4553 17.37 90.8253C17.73 91.1953 18.155 91.4853 18.645 91.6953C19.135 91.8953 19.67 91.9953 20.25 91.9953C20.83 91.9953 21.365 91.8953 21.855 91.6953C22.345 91.4853 22.775 91.1953 23.145 90.8253C23.505 90.4553 23.785 90.0253 23.985 89.5353C24.185 89.0353 24.285 88.4903 24.285 87.9003ZM25.5 81.0899L24.48 81.0899L15.72 74.0249L16.305 73.8599L16.305 80.9849L15 80.9849L15 72.5099L16.02 72.5099L24.78 79.5449L24.195 79.7249L24.195 72.3149L25.5 72.3149L25.5 81.0899ZM25.5 67.7665L21.48 67.7665L22.41 67.4215L15 71.9365L15 70.3315L21.255 66.5365L21.255 67.4065L15 63.5965L15 62.1115L22.41 66.6115L21.48 66.2815L25.5 66.2815L25.5 67.7665Z" fill="white"/>
</svg>