<svg width="839" height="285" viewBox="0 0 839 285" fill="none" xmlns="http://www.w3.org/2000/svg">
<path d="M5.25 145V131.95L46.95 92.35C50.45 89.05 53.05 86.15 54.75 83.65C56.45 81.15 57.55 78.85 58.05 76.75C58.65 74.55 58.95 72.5 58.95 70.6C58.95 65.8 57.3 62.1 54 59.5C50.7 56.8 45.85 55.45 39.45 55.45C34.35 55.45 29.7 56.35 25.5 58.15C21.4 59.95 17.85 62.7 14.85 66.4L1.2 55.9C5.3 50.4 10.8 46.15 17.7 43.15C24.7 40.05 32.5 38.5 41.1 38.5C48.7 38.5 55.3 39.75 60.9 42.25C66.6 44.65 70.95 48.1 73.95 52.6C77.05 57.1 78.6 62.45 78.6 68.65C78.6 72.05 78.15 75.45 77.25 78.85C76.35 82.15 74.65 85.65 72.15 89.35C69.65 93.05 66 97.2 61.2 101.8L25.35 135.85L21.3 128.5H82.65V145H5.25ZM92.5547 145V131.95L134.255 92.35C137.755 89.05 140.355 86.15 142.055 83.65C143.755 81.15 144.855 78.85 145.355 76.75C145.955 74.55 146.255 72.5 146.255 70.6C146.255 65.8 144.605 62.1 141.305 59.5C138.005 56.8 133.155 55.45 126.755 55.45C121.655 55.45 117.005 56.35 112.805 58.15C108.705 59.95 105.155 62.7 102.155 66.4L88.5047 55.9C92.6047 50.4 98.1047 46.15 105.005 43.15C112.005 40.05 119.805 38.5 128.405 38.5C136.005 38.5 142.605 39.75 148.205 42.25C153.905 44.65 158.255 48.1 161.255 52.6C164.355 57.1 165.905 62.45 165.905 68.65C165.905 72.05 165.455 75.45 164.555 78.85C163.655 82.15 161.955 85.65 159.455 89.35C156.955 93.05 153.305 97.2 148.505 101.8L112.655 135.85L108.605 128.5H169.955V145H92.5547ZM194.374 146.05C190.974 146.05 188.074 144.9 185.674 142.6C183.274 140.2 182.074 137.2 182.074 133.6C182.074 129.8 183.274 126.8 185.674 124.6C188.074 122.3 190.974 121.15 194.374 121.15C197.774 121.15 200.674 122.3 203.074 124.6C205.474 126.8 206.674 129.8 206.674 133.6C206.674 137.2 205.474 140.2 203.074 142.6C200.674 144.9 197.774 146.05 194.374 146.05ZM233.898 145V47.5L242.448 56.35H211.698V40H253.398V145H233.898ZM318.027 146.5C309.727 146.5 302.227 144.4 295.527 140.2C288.927 136 283.727 129.9 279.927 121.9C276.127 113.8 274.227 104 274.227 92.5C274.227 81 276.127 71.25 279.927 63.25C283.727 55.15 288.927 49 295.527 44.8C302.227 40.6 309.727 38.5 318.027 38.5C326.427 38.5 333.927 40.6 340.527 44.8C347.127 49 352.327 55.15 356.127 63.25C360.027 71.25 361.977 81 361.977 92.5C361.977 104 360.027 113.8 356.127 121.9C352.327 129.9 347.127 136 340.527 140.2C333.927 144.4 326.427 146.5 318.027 146.5ZM318.027 129.55C322.927 129.55 327.177 128.25 330.777 125.65C334.377 122.95 337.177 118.85 339.177 113.35C341.277 107.85 342.327 100.9 342.327 92.5C342.327 84 341.277 77.05 339.177 71.65C337.177 66.15 334.377 62.1 330.777 59.5C327.177 56.8 322.927 55.45 318.027 55.45C313.327 55.45 309.127 56.8 305.427 59.5C301.827 62.1 298.977 66.15 296.877 71.65C294.877 77.05 293.877 84 293.877 92.5C293.877 100.9 294.877 107.85 296.877 113.35C298.977 118.85 301.827 122.95 305.427 125.65C309.127 128.25 313.327 129.55 318.027 129.55ZM385.097 146.05C381.697 146.05 378.797 144.9 376.397 142.6C373.997 140.2 372.797 137.2 372.797 133.6C372.797 129.8 373.997 126.8 376.397 124.6C378.797 122.3 381.697 121.15 385.097 121.15C388.497 121.15 391.397 122.3 393.797 124.6C396.197 126.8 397.397 129.8 397.397 133.6C397.397 137.2 396.197 140.2 393.797 142.6C391.397 144.9 388.497 146.05 385.097 146.05ZM424.621 145V47.5L433.171 56.35H402.421V40H444.121V145H424.621ZM508.75 146.5C500.45 146.5 492.95 144.4 486.25 140.2C479.65 136 474.45 129.9 470.65 121.9C466.85 113.8 464.95 104 464.95 92.5C464.95 81 466.85 71.25 470.65 63.25C474.45 55.15 479.65 49 486.25 44.8C492.95 40.6 500.45 38.5 508.75 38.5C517.15 38.5 524.65 40.6 531.25 44.8C537.85 49 543.05 55.15 546.85 63.25C550.75 71.25 552.7 81 552.7 92.5C552.7 104 550.75 113.8 546.85 121.9C543.05 129.9 537.85 136 531.25 140.2C524.65 144.4 517.15 146.5 508.75 146.5ZM508.75 129.55C513.65 129.55 517.9 128.25 521.5 125.65C525.1 122.95 527.9 118.85 529.9 113.35C532 107.85 533.05 100.9 533.05 92.5C533.05 84 532 77.05 529.9 71.65C527.9 66.15 525.1 62.1 521.5 59.5C517.9 56.8 513.65 55.45 508.75 55.45C504.05 55.45 499.85 56.8 496.15 59.5C492.55 62.1 489.7 66.15 487.6 71.65C485.6 77.05 484.6 84 484.6 92.5C484.6 100.9 485.6 107.85 487.6 113.35C489.7 118.85 492.55 122.95 496.15 125.65C499.85 128.25 504.05 129.55 508.75 129.55Z" fill="black"/>
<path d="M428.4 285V187.5L436.95 196.35H406.2V180H447.9V285H428.4ZM512.529 286.5C504.229 286.5 496.729 284.4 490.029 280.2C483.429 276 478.229 269.9 474.429 261.9C470.629 253.8 468.729 244 468.729 232.5C468.729 221 470.629 211.25 474.429 203.25C478.229 195.15 483.429 189 490.029 184.8C496.729 180.6 504.229 178.5 512.529 178.5C520.929 178.5 528.429 180.6 535.029 184.8C541.629 189 546.829 195.15 550.629 203.25C554.529 211.25 556.479 221 556.479 232.5C556.479 244 554.529 253.8 550.629 261.9C546.829 269.9 541.629 276 535.029 280.2C528.429 284.4 520.929 286.5 512.529 286.5ZM512.529 269.55C517.429 269.55 521.679 268.25 525.279 265.65C528.879 262.95 531.679 258.85 533.679 253.35C535.779 247.85 536.829 240.9 536.829 232.5C536.829 224 535.779 217.05 533.679 211.65C531.679 206.15 528.879 202.1 525.279 199.5C521.679 196.8 517.429 195.45 512.529 195.45C507.829 195.45 503.629 196.8 499.929 199.5C496.329 202.1 493.479 206.15 491.379 211.65C489.379 217.05 488.379 224 488.379 232.5C488.379 240.9 489.379 247.85 491.379 253.35C493.479 258.85 496.329 262.95 499.929 265.65C503.629 268.25 507.829 269.55 512.529 269.55ZM579.599 286.05C576.199 286.05 573.299 284.9 570.899 282.6C568.499 280.2 567.299 277.2 567.299 273.6C567.299 269.8 568.499 266.8 570.899 264.6C573.299 262.3 576.199 261.15 579.599 261.15C582.999 261.15 585.899 262.3 588.299 264.6C590.699 266.8 591.899 269.8 591.899 273.6C591.899 277.2 590.699 280.2 588.299 282.6C585.899 284.9 582.999 286.05 579.599 286.05ZM619.123 285V187.5L627.673 196.35H596.923V180H638.623V285H619.123ZM657.952 261.15V247.65L709.702 180H730.552L679.552 247.65L669.802 244.65H753.052V261.15H657.952ZM715.552 285V261.15L716.152 244.65V223.5H734.452V285H715.552Z" fill="black"/>
<rect x="93" y="223" width="275" height="18" fill="black"/>
</svg>
