<svg xmlns="http://www.w3.org/2000/svg" fill="none" viewBox="5 7.42 29.5 152.16">
<path fill-rule="evenodd" clip-rule="evenodd" d="M5.5 83.4997L5.5 32.7647L34 8.5L34 83.4997L34 83.5001L34 158.5L5.5 134.235L5.5 83.4997Z" fill="#5ABEB8"/>
<path d="M5.5 32.7647L5.17587 32.384L5 32.5337L5 32.7647L5.5 32.7647ZM5.5 83.4997L5 83.4997L5.5 83.4997ZM34 8.5L34.5 8.5L34.5 7.41763L33.6759 8.11929L34 8.5ZM34 158.5L33.6759 158.88L34.5 159.582L34.5 158.5L34 158.5ZM5.5 134.235L5 134.235L5 134.466L5.17587 134.616L5.5 134.235ZM5 32.7647L5 83.4997L6 83.4997L6 32.7647L5 32.7647ZM33.6759 8.11929L5.17587 32.384L5.82413 33.1454L34.3241 8.88071L33.6759 8.11929ZM34.5 83.4997L34.5 8.5L33.5 8.5L33.5 83.4997L34.5 83.4997ZM33.5 83.4997L33.5 83.5001L34.5 83.5001L34.5 83.4997L33.5 83.4997ZM33.5 83.5001L33.5 158.5L34.5 158.5L34.5 83.5001L33.5 83.5001ZM34.3241 158.119L5.82413 133.854L5.17587 134.616L33.6759 158.88L34.3241 158.119ZM6 134.235L6 83.4997L5 83.4997L5 134.235L6 134.235Z" fill="black"/>
<path d="M25.5 117.308L15 117.308L15 112.883C15 111.763 15.22 110.778 15.66 109.928C16.1 109.068 16.715 108.403 17.505 107.933C18.295 107.453 19.21 107.213 20.25 107.213C21.29 107.213 22.205 107.453 22.995 107.933C23.785 108.403 24.4 109.068 24.84 109.928C25.28 110.778 25.5 111.763 25.5 112.883L25.5 117.308ZM24.195 115.808L24.195 112.973C24.195 112.103 24.03 111.353 23.7 110.723C23.37 110.083 22.91 109.588 22.32 109.238C21.72 108.888 21.03 108.713 20.25 108.713C19.46 108.713 18.77 108.888 18.18 109.238C17.59 109.588 17.13 110.083 16.8 110.723C16.47 111.353 16.305 112.103 16.305 112.973L16.305 115.808L24.195 115.808ZM25.5 104.916L15 104.916L15 103.416L25.5 103.416L25.5 104.916ZM25.5 97.3447L15 101.965L15 100.345L24.69 96.0997L24.69 97.0297L15 92.7547L15 91.2547L25.5 95.8597L25.5 97.3447ZM25.5 89.9157L15 89.9157L15 88.4157L25.5 88.4157L25.5 89.9157ZM25.62 82.2122C25.62 83.0122 25.5 83.7772 25.26 84.5072C25.01 85.2372 24.69 85.8122 24.3 86.2322L23.13 85.6772C23.48 85.2772 23.77 84.7672 24 84.1472C24.23 83.5272 24.345 82.8822 24.345 82.2122C24.345 81.6022 24.275 81.1072 24.135 80.7272C23.995 80.3472 23.805 80.0672 23.565 79.8872C23.315 79.7072 23.035 79.6172 22.725 79.6172C22.365 79.6172 22.075 79.7372 21.855 79.9772C21.635 80.2072 21.46 80.5122 21.33 80.8922C21.19 81.2622 21.07 81.6722 20.97 82.1222C20.87 82.5722 20.755 83.0272 20.625 83.4872C20.485 83.9372 20.31 84.3522 20.1 84.7322C19.89 85.1022 19.61 85.4022 19.26 85.6322C18.9 85.8622 18.44 85.9772 17.88 85.9772C17.34 85.9772 16.845 85.8372 16.395 85.5572C15.935 85.2672 15.57 84.8272 15.3 84.2372C15.02 83.6372 14.88 82.8772 14.88 81.9572C14.88 81.3472 14.96 80.7422 15.12 80.1422C15.28 79.5422 15.51 79.0222 15.81 78.5822L17.01 79.0772C16.71 79.5272 16.495 80.0022 16.365 80.5022C16.225 81.0022 16.155 81.4872 16.155 81.9572C16.155 82.5472 16.23 83.0322 16.38 83.4122C16.53 83.7922 16.73 84.0722 16.98 84.2522C17.23 84.4222 17.51 84.5072 17.82 84.5072C18.19 84.5072 18.485 84.3922 18.705 84.1622C18.925 83.9222 19.1 83.6172 19.23 83.2472C19.36 82.8672 19.48 82.4522 19.59 82.0022C19.69 81.5522 19.805 81.1022 19.935 80.6522C20.065 80.1922 20.235 79.7772 20.445 79.4072C20.655 79.0272 20.935 78.7222 21.285 78.4922C21.635 78.2622 22.085 78.1472 22.635 78.1472C23.165 78.1472 23.66 78.2922 24.12 78.5822C24.57 78.8722 24.935 79.3222 25.215 79.9322C25.485 80.5322 25.62 81.2922 25.62 82.2122ZM25.5 75.9558L15 75.9558L15 74.4558L25.5 74.4558L25.5 75.9558ZM25.62 66.5722C25.62 67.3722 25.485 68.1172 25.215 68.8072C24.945 69.4872 24.57 70.0772 24.09 70.5772C23.6 71.0772 23.03 71.4672 22.38 71.7472C21.73 72.0272 21.02 72.1672 20.25 72.1672C19.48 72.1672 18.77 72.0272 18.12 71.7472C17.47 71.4672 16.905 71.0772 16.425 70.5772C15.935 70.0772 15.555 69.4872 15.285 68.8072C15.015 68.1272 14.88 67.3822 14.88 66.5722C14.88 65.7722 15.015 65.0372 15.285 64.3672C15.545 63.6872 15.92 63.0972 16.41 62.5972C16.89 62.0872 17.455 61.6972 18.105 61.4272C18.755 61.1472 19.47 61.0072 20.25 61.0072C21.03 61.0072 21.745 61.1472 22.395 61.4272C23.045 61.6972 23.615 62.0872 24.105 62.5972C24.585 63.0972 24.96 63.6872 25.23 64.3672C25.49 65.0372 25.62 65.7722 25.62 66.5722ZM24.285 66.5722C24.285 65.9922 24.185 65.4572 23.985 64.9672C23.785 64.4672 23.505 64.0372 23.145 63.6772C22.775 63.3072 22.345 63.0222 21.855 62.8222C21.365 62.6122 20.83 62.5072 20.25 62.5072C19.67 62.5072 19.135 62.6122 18.645 62.8222C18.155 63.0222 17.73 63.3072 17.37 63.6772C17 64.0372 16.715 64.4672 16.515 64.9672C16.315 65.4572 16.215 65.9922 16.215 66.5722C16.215 67.1622 16.315 67.7072 16.515 68.2072C16.715 68.6972 17 69.1272 17.37 69.4972C17.73 69.8672 18.155 70.1572 18.645 70.3672C19.135 70.5672 19.67 70.6672 20.25 70.6672C20.83 70.6672 21.365 70.5672 21.855 70.3672C22.345 70.1572 22.775 69.8672 23.145 69.4972C23.505 69.1272 23.785 68.6972 23.985 68.2072C24.185 67.7072 24.285 67.1622 24.285 66.5722ZM25.5 58.7145L15 58.7146L15 57.4846L23.625 50.5395L23.625 51.1845L15 51.1845L15 49.6845L25.5 49.6845L25.5 50.9145L16.875 57.8596L16.875 57.2145L25.5 57.2145L25.5 58.7145Z" fill="white"/>
</svg>