<svg width="262" height="53" viewBox="0 0 262 53" fill="none" xmlns="http://www.w3.org/2000/svg">
<path d="M32 1L1 52H261L229.5 1H32Z" fill="black" stroke="black"/>
<path d="M59.5295 24.55H67.9545V27.7H59.5295V24.55ZM59.8295 31.75H69.3545V35H55.8045V17.5H69.0295V20.75H59.8295V31.75ZM70.4061 35L77.9311 24.625V27.575L70.7311 17.5H75.3311L80.3061 24.525L78.3811 24.55L83.2811 17.5H87.6811L80.5311 27.4V24.5L88.1061 35H83.4311L78.2811 27.575H80.1311L75.0561 35H70.4061ZM101.691 17.5H105.741V35H101.691V17.5ZM93.7412 35H89.6912V17.5H93.7412V35ZM101.991 27.825H93.4412V24.4H101.991V27.825ZM109.882 35V17.5H113.932V35H109.882ZM118.085 35V17.5H126.635C128.835 17.5 130.485 17.9167 131.585 18.75C132.701 19.5833 133.26 20.6833 133.26 22.05C133.26 22.9667 133.035 23.7667 132.585 24.45C132.135 25.1167 131.518 25.6333 130.735 26C129.951 26.3667 129.051 26.55 128.035 26.55L128.51 25.525C129.61 25.525 130.585 25.7083 131.435 26.075C132.285 26.425 132.943 26.95 133.41 27.65C133.893 28.35 134.135 29.2083 134.135 30.225C134.135 31.725 133.543 32.9 132.36 33.75C131.176 34.5833 129.435 35 127.135 35H118.085ZM122.11 31.95H126.835C127.885 31.95 128.676 31.7833 129.21 31.45C129.76 31.1 130.035 30.55 130.035 29.8C130.035 29.0667 129.76 28.525 129.21 28.175C128.676 27.8083 127.885 27.625 126.835 27.625H121.81V24.675H126.135C127.118 24.675 127.868 24.5083 128.385 24.175C128.918 23.825 129.185 23.3 129.185 22.6C129.185 21.9167 128.918 21.4083 128.385 21.075C127.868 20.725 127.118 20.55 126.135 20.55H122.11V31.95ZM137.201 35V17.5H141.251V35H137.201ZM149.029 35V20.8H143.429V17.5H158.679V20.8H153.079V35H149.029ZM160.858 35V17.5H164.908V35H160.858ZM177.561 35.3C176.178 35.3 174.895 35.075 173.711 34.625C172.545 34.175 171.528 33.5417 170.661 32.725C169.811 31.9083 169.145 30.95 168.661 29.85C168.195 28.75 167.961 27.55 167.961 26.25C167.961 24.95 168.195 23.75 168.661 22.65C169.145 21.55 169.82 20.5917 170.686 19.775C171.553 18.9583 172.57 18.325 173.736 17.875C174.903 17.425 176.17 17.2 177.536 17.2C178.92 17.2 180.186 17.425 181.336 17.875C182.503 18.325 183.511 18.9583 184.361 19.775C185.228 20.5917 185.903 21.55 186.386 22.65C186.87 23.7333 187.111 24.9333 187.111 26.25C187.111 27.55 186.87 28.7583 186.386 29.875C185.903 30.975 185.228 31.9333 184.361 32.75C183.511 33.55 182.503 34.175 181.336 34.625C180.186 35.075 178.928 35.3 177.561 35.3ZM177.536 31.85C178.32 31.85 179.036 31.7167 179.686 31.45C180.353 31.1833 180.936 30.8 181.436 30.3C181.936 29.8 182.32 29.2083 182.586 28.525C182.87 27.8417 183.011 27.0833 183.011 26.25C183.011 25.4167 182.87 24.6583 182.586 23.975C182.32 23.2917 181.936 22.7 181.436 22.2C180.953 21.7 180.378 21.3167 179.711 21.05C179.045 20.7833 178.32 20.65 177.536 20.65C176.753 20.65 176.028 20.7833 175.361 21.05C174.711 21.3167 174.136 21.7 173.636 22.2C173.136 22.7 172.745 23.2917 172.461 23.975C172.195 24.6583 172.061 25.4167 172.061 26.25C172.061 27.0667 172.195 27.825 172.461 28.525C172.745 29.2083 173.128 29.8 173.611 30.3C174.111 30.8 174.695 31.1833 175.361 31.45C176.028 31.7167 176.753 31.85 177.536 31.85ZM190.155 35V17.5H193.505L203.83 30.1H202.205V17.5H206.205V35H202.88L192.53 22.4H194.155V35H190.155Z" fill="white"/>
</svg>
