<svg xmlns="http://www.w3.org/2000/svg" fill="none" viewBox="10.5 58.14 20 143.6">
<path fill-rule="evenodd" clip-rule="evenodd" d="M30 59.5181L30 129.938L30 129.938L30 200.358L11 177.575L11 129.938L11 129.938L11 82.301L30 59.5181Z" fill="black"/>
<path d="M30 129.938H30.5H30ZM30 59.5181H30.5L30.5 58.1378L29.616 59.1978L30 59.5181ZM30 129.938H30.5H30ZM30 200.358L29.616 200.678L30.5 201.738L30.5 200.358H30ZM11 177.575H10.5L10.5 177.756L10.616 177.895L11 177.575ZM11 82.301L10.616 81.9808L10.5 82.1199L10.5 82.301H11ZM30.5 129.938L30.5 59.5181L29.5 59.5181L29.5 129.938H30.5ZM29.5 129.938L29.5 129.938H30.5L30.5 129.938H29.5ZM29.5 129.938L29.5 200.358H30.5L30.5 129.938H29.5ZM30.384 200.038L11.384 177.255L10.616 177.895L29.616 200.678L30.384 200.038ZM11.5 177.575L11.5 129.938H10.5L10.5 177.575H11.5ZM11.5 129.938L11.5 129.938H10.5L10.5 129.938H11.5ZM10.5 82.301L10.5 129.938H11.5L11.5 82.301H10.5ZM29.616 59.1978L10.616 81.9808L11.384 82.6212L30.384 59.8383L29.616 59.1978Z" fill="black"/>
<path d="M19.03 172.412L19.03 167.012L20.305 167.012L20.305 172.412L19.03 172.412ZM23.695 172.277L23.695 166.157L25 166.157L25 173.777L14.5 173.777L14.5 166.367L15.805 166.367L15.805 172.277L23.695 172.277ZM25 165.225L19.045 160.86L20.2 160.86L14.5 164.985L14.5 163.275L18.985 160.005L19 160.68L14.5 157.425L14.5 155.79L20.11 159.885L19.03 159.885L25 155.52L25 157.245L20.215 160.725L20.215 160.065L25 163.5L25 165.225ZM14.5 146.574L14.5 145.074L25 145.074L25 146.574L14.5 146.574ZM25 152.604L25 154.104L14.5 154.104L14.5 152.604L25 152.604ZM20.32 146.439L20.32 152.754L19.015 152.754L19.015 146.439L20.32 146.439ZM25 141.931L14.5 141.931L14.5 140.431L25 140.431L25 141.931ZM25 137.287L14.5 137.287L14.5 132.577C14.5 131.367 14.745 130.437 15.235 129.787C15.715 129.137 16.375 128.812 17.215 128.812C17.785 128.812 18.265 128.942 18.655 129.202C19.045 129.452 19.345 129.792 19.555 130.222C19.765 130.652 19.87 131.117 19.87 131.617L19.42 131.347C19.42 130.747 19.525 130.217 19.735 129.757C19.945 129.297 20.255 128.932 20.665 128.662C21.065 128.392 21.565 128.257 22.165 128.257C23.065 128.257 23.765 128.597 24.265 129.277C24.755 129.947 25 130.947 25 132.277L25 137.287ZM23.785 135.787L23.785 132.337C23.785 131.507 23.645 130.872 23.365 130.432C23.085 129.992 22.645 129.772 22.045 129.772C21.435 129.772 20.99 129.992 20.71 130.432C20.43 130.872 20.29 131.507 20.29 132.337L20.29 135.922L19.075 135.922L19.075 132.712C19.075 131.952 18.935 131.362 18.655 130.942C18.375 130.522 17.955 130.312 17.395 130.312C16.835 130.312 16.415 130.522 16.135 130.942C15.855 131.362 15.715 131.952 15.715 132.712L15.715 135.787L23.785 135.787ZM25 125.935L14.5 125.935L14.5 124.435L25 124.435L25 125.935ZM25 119.206L15.805 119.206L15.805 122.806L14.5 122.806L14.5 114.121L15.805 114.121L15.805 117.721L25 117.721L25 119.206ZM25 112.487L14.5 112.487L14.5 110.987L25 110.987L25 112.487ZM25.12 103.104C25.12 103.904 24.985 104.649 24.715 105.339C24.445 106.019 24.07 106.609 23.59 107.109C23.1 107.609 22.53 107.999 21.88 108.279C21.23 108.559 20.52 108.699 19.75 108.699C18.98 108.699 18.27 108.559 17.62 108.279C16.97 107.999 16.405 107.609 15.925 107.109C15.435 106.609 15.055 106.019 14.785 105.339C14.515 104.659 14.38 103.914 14.38 103.104C14.38 102.304 14.515 101.569 14.785 100.899C15.045 100.219 15.42 99.6289 15.91 99.1289C16.39 98.6189 16.955 98.2289 17.605 97.9589C18.255 97.6789 18.97 97.5389 19.75 97.5389C20.53 97.5389 21.245 97.6789 21.895 97.9589C22.545 98.2289 23.115 98.6189 23.605 99.1289C24.085 99.6289 24.46 100.219 24.73 100.899C24.99 101.569 25.12 102.304 25.12 103.104ZM23.785 103.104C23.785 102.524 23.685 101.989 23.485 101.499C23.285 100.999 23.005 100.569 22.645 100.209C22.275 99.8389 21.845 99.5539 21.355 99.3539C20.865 99.1439 20.33 99.0389 19.75 99.0389C19.17 99.0389 18.635 99.1439 18.145 99.3539C17.655 99.5539 17.23 99.8389 16.87 100.209C16.5 100.569 16.215 100.999 16.015 101.499C15.815 101.989 15.715 102.524 15.715 103.104C15.715 103.694 15.815 104.239 16.015 104.739C16.215 105.229 16.5 105.659 16.87 106.029C17.23 106.399 17.655 106.689 18.145 106.899C18.635 107.099 19.17 107.199 19.75 107.199C20.33 107.199 20.865 107.099 21.355 106.899C21.845 106.689 22.275 106.399 22.645 106.029C23.005 105.659 23.285 105.229 23.485 104.739C23.685 104.239 23.785 103.694 23.785 103.104ZM25 95.2463L14.5 95.2463L14.5 94.0163L23.125 87.0713L23.125 87.7163L14.5 87.7163L14.5 86.2163L25 86.2163L25 87.4463L16.375 94.3913L16.375 93.7463L25 93.7463L25 95.2463Z" fill="white"/>
</svg>