<svg xmlns="http://www.w3.org/2000/svg" fill="none" viewBox="5 7.42 29.5 152.16">
<path fill-rule="evenodd" clip-rule="evenodd" d="M5.5 83.4997L5.5 32.7647L34 8.5L34 83.4997L34 83.5001L34 158.5L5.5 134.235L5.5 83.4997Z" fill="#79BB2E"/>
<path d="M5.5 32.7647L5.17587 32.384L5 32.5337L5 32.7647L5.5 32.7647ZM5.5 83.4997L5 83.4997L5.5 83.4997ZM34 8.5L34.5 8.5L34.5 7.41763L33.6759 8.11929L34 8.5ZM34 158.5L33.6759 158.88L34.5 159.582L34.5 158.5L34 158.5ZM5.5 134.235L5 134.235L5 134.466L5.17587 134.616L5.5 134.235ZM5 32.7647L5 83.4997L6 83.4997L6 32.7647L5 32.7647ZM33.6759 8.11929L5.17587 32.384L5.82413 33.1454L34.3241 8.88071L33.6759 8.11929ZM34.5 83.4997L34.5 8.5L33.5 8.5L33.5 83.4997L34.5 83.4997ZM33.5 83.4997L33.5 83.5001L34.5 83.5001L34.5 83.4997L33.5 83.4997ZM33.5 83.5001L33.5 158.5L34.5 158.5L34.5 83.5001L33.5 83.5001ZM34.3241 158.119L5.82413 133.854L5.17587 134.616L33.6759 158.88L34.3241 158.119ZM6 134.235L6 83.4997L5 83.4997L5 134.235L6 134.235Z" fill="black"/>
<path d="M25.5 96.676L15 96.676L15 95.176L25.5 95.176L25.5 96.676ZM25.5 92.0324L15 92.0324L15 87.9374C15 87.0174 15.145 86.2324 15.435 85.5824C15.725 84.9324 16.145 84.4324 16.695 84.0824C17.245 83.7324 17.9 83.5574 18.66 83.5574C19.42 83.5574 20.075 83.7324 20.625 84.0824C21.165 84.4324 21.58 84.9324 21.87 85.5824C22.16 86.2324 22.305 87.0174 22.305 87.9374L22.305 91.2074L21.615 90.5324L25.5 90.5324L25.5 92.0324ZM25.5 85.0124L21.69 87.6824L21.69 86.0774L25.5 83.3774L25.5 85.0124ZM21.765 90.5324L21.03 91.2074L21.03 87.9824C21.03 87.0224 20.825 86.2974 20.415 85.8074C19.995 85.3074 19.41 85.0574 18.66 85.0574C17.91 85.0574 17.33 85.3074 16.92 85.8074C16.51 86.2974 16.305 87.0224 16.305 87.9824L16.305 91.2074L15.555 90.5324L21.765 90.5324ZM25.5 81.134L15 81.134L15 79.634L25.5 79.634L25.5 81.134ZM25.62 73.4304C25.62 74.2304 25.5 74.9954 25.26 75.7254C25.01 76.4554 24.69 77.0304 24.3 77.4504L23.13 76.8954C23.48 76.4954 23.77 75.9854 24 75.3654C24.23 74.7454 24.345 74.1004 24.345 73.4304C24.345 72.8204 24.275 72.3254 24.135 71.9454C23.995 71.5654 23.805 71.2854 23.565 71.1054C23.315 70.9254 23.035 70.8354 22.725 70.8354C22.365 70.8354 22.075 70.9554 21.855 71.1954C21.635 71.4254 21.46 71.7304 21.33 72.1104C21.19 72.4804 21.07 72.8904 20.97 73.3404C20.87 73.7904 20.755 74.2454 20.625 74.7054C20.485 75.1554 20.31 75.5704 20.1 75.9504C19.89 76.3204 19.61 76.6204 19.26 76.8504C18.9 77.0804 18.44 77.1954 17.88 77.1954C17.34 77.1954 16.845 77.0554 16.395 76.7754C15.935 76.4854 15.57 76.0454 15.3 75.4554C15.02 74.8554 14.88 74.0954 14.88 73.1754C14.88 72.5654 14.96 71.9604 15.12 71.3604C15.28 70.7604 15.51 70.2404 15.81 69.8004L17.01 70.2954C16.71 70.7454 16.495 71.2204 16.365 71.7204C16.225 72.2204 16.155 72.7054 16.155 73.1754C16.155 73.7654 16.23 74.2504 16.38 74.6304C16.53 75.0104 16.73 75.2904 16.98 75.4704C17.23 75.6404 17.51 75.7254 17.82 75.7254C18.19 75.7254 18.485 75.6104 18.705 75.3804C18.925 75.1404 19.1 74.8354 19.23 74.4654C19.36 74.0854 19.48 73.6704 19.59 73.2204C19.69 72.7704 19.805 72.3204 19.935 71.8704C20.065 71.4104 20.235 70.9954 20.445 70.6254C20.655 70.2454 20.935 69.9404 21.285 69.7104C21.635 69.4804 22.085 69.3654 22.635 69.3654C23.165 69.3654 23.66 69.5104 24.12 69.8004C24.57 70.0904 24.935 70.5404 25.215 71.1504C25.485 71.7504 25.62 72.5104 25.62 73.4304Z" fill="white"/>
</svg>