<svg xmlns="http://www.w3.org/2000/svg" fill="none" viewBox="5 7.42 29.5 152.16">
<path fill-rule="evenodd" clip-rule="evenodd" d="M5.5 83.4998L5.5 32.7648L34 8.50012L34 83.4998L34 83.5002L34 158.5L5.5 134.235L5.5 83.4998Z" fill="#E6286A"/>
<path d="M5.5 32.7647L5.17587 32.384L5 32.5337L5 32.7647L5.5 32.7647ZM5.5 83.4997L5 83.4997L5.5 83.4997ZM34 8.5L34.5 8.5L34.5 7.41763L33.6759 8.11929L34 8.5ZM34 83.4997L34.5 83.4997L34 83.4997ZM34 83.5001L33.5 83.5001L34 83.5001ZM34 158.5L33.6759 158.88L34.5 159.582L34.5 158.5L34 158.5ZM5.5 134.235L5 134.235L5 134.466L5.17587 134.616L5.5 134.235ZM5 32.7647L5 83.4997L6 83.4997L6 32.7647L5 32.7647ZM33.6759 8.11929L5.17587 32.384L5.82413 33.1454L34.3241 8.88071L33.6759 8.11929ZM34.5 83.4997L34.5 8.5L33.5 8.5L33.5 83.4997L34.5 83.4997ZM33.5 83.4997L33.5 83.5001L34.5 83.5001L34.5 83.4997L33.5 83.4997ZM33.5 83.5001L33.5 158.5L34.5 158.5L34.5 83.5001L33.5 83.5001ZM34.3241 158.119L5.82413 133.854L5.17587 134.616L33.6759 158.88L34.3241 158.119ZM6 134.235L6 83.4997L5 83.4997L5 134.235L6 134.235Z" fill="black"/>
<path d="M25.5 101.041L15 101.041L15 99.8112L22.935 95.1012L22.935 95.7612L15 91.1112L15 89.8812L25.5 89.8662L25.5 91.3062L17.265 91.3212L17.265 90.9762L24.225 95.1162L24.225 95.8062L17.265 99.9762L17.265 99.6012L25.5 99.6012L25.5 101.041ZM25.5 86.715L15 86.715L15 82.62C15 81.7 15.145 80.915 15.435 80.265C15.725 79.615 16.145 79.115 16.695 78.765C17.245 78.415 17.9 78.24 18.66 78.24C19.42 78.24 20.075 78.415 20.625 78.765C21.165 79.115 21.58 79.615 21.87 80.265C22.16 80.915 22.305 81.7 22.305 82.62L22.305 85.89L21.615 85.215L25.5 85.215L25.5 86.715ZM25.5 79.695L21.69 82.365L21.69 80.76L25.5 78.06L25.5 79.695ZM21.765 85.215L21.03 85.89L21.03 82.665C21.03 81.705 20.825 80.98 20.415 80.49C19.995 79.99 19.41 79.74 18.66 79.74C17.91 79.74 17.33 79.99 16.92 80.49C16.51 80.98 16.305 81.705 16.305 82.665L16.305 85.89L15.555 85.215L21.765 85.215ZM25.62 72.7566C25.62 73.5566 25.5 74.3216 25.26 75.0516C25.01 75.7816 24.69 76.3566 24.3 76.7766L23.13 76.2216C23.48 75.8216 23.77 75.3116 24 74.6916C24.23 74.0716 24.345 73.4266 24.345 72.7566C24.345 72.1466 24.275 71.6516 24.135 71.2716C23.995 70.8916 23.805 70.6116 23.565 70.4316C23.315 70.2516 23.035 70.1616 22.725 70.1616C22.365 70.1616 22.075 70.2816 21.855 70.5216C21.635 70.7516 21.46 71.0566 21.33 71.4366C21.19 71.8066 21.07 72.2166 20.97 72.6666C20.87 73.1166 20.755 73.5716 20.625 74.0316C20.485 74.4816 20.31 74.8966 20.1 75.2766C19.89 75.6466 19.61 75.9466 19.26 76.1766C18.9 76.4066 18.44 76.5216 17.88 76.5216C17.34 76.5216 16.845 76.3816 16.395 76.1016C15.935 75.8116 15.57 75.3716 15.3 74.7816C15.02 74.1816 14.88 73.4216 14.88 72.5016C14.88 71.8916 14.96 71.2866 15.12 70.6866C15.28 70.0866 15.51 69.5666 15.81 69.1266L17.01 69.6216C16.71 70.0716 16.495 70.5466 16.365 71.0466C16.225 71.5466 16.155 72.0316 16.155 72.5016C16.155 73.0916 16.23 73.5766 16.38 73.9566C16.53 74.3366 16.73 74.6166 16.98 74.7966C17.23 74.9666 17.51 75.0516 17.82 75.0516C18.19 75.0516 18.485 74.9366 18.705 74.7066C18.925 74.4666 19.1 74.1616 19.23 73.7916C19.36 73.4116 19.48 72.9966 19.59 72.5466C19.69 72.0966 19.805 71.6466 19.935 71.1966C20.065 70.7366 20.235 70.3216 20.445 69.9516C20.655 69.5716 20.935 69.2666 21.285 69.0366C21.635 68.8066 22.085 68.6916 22.635 68.6916C23.165 68.6916 23.66 68.8366 24.12 69.1266C24.57 69.4166 24.935 69.8666 25.215 70.4766C25.485 71.0766 25.62 71.8366 25.62 72.7566ZM25.59 66.0722C25.59 66.3522 25.495 66.5922 25.305 66.7922C25.105 66.9922 24.855 67.0922 24.555 67.0922C24.255 67.0922 24.01 66.9922 23.82 66.7922C23.63 66.5922 23.535 66.3522 23.535 66.0722C23.535 65.8022 23.63 65.5722 23.82 65.3822C24.01 65.1822 24.255 65.0822 24.555 65.0822C24.855 65.0822 25.105 65.1822 25.305 65.3822C25.495 65.5722 25.59 65.8022 25.59 66.0722Z" fill="white"/>
</svg>