<svg xmlns="http://www.w3.org/2000/svg" fill="none" viewBox="5 7.42 29.5 152.16">
<path fill-rule="evenodd" clip-rule="evenodd" d="M5.5 83.4997L5.5 32.7647L34 8.5L34 83.4997L34 83.5001L34 158.5L5.5 134.235L5.5 83.4997Z" fill="#F2EA2B"/>
<path d="M5.5 32.7647L5.17587 32.384L5 32.5337L5 32.7647L5.5 32.7647ZM5.5 83.4997L5 83.4997L5.5 83.4997ZM34 8.5L34.5 8.5L34.5 7.41763L33.6759 8.11929L34 8.5ZM34 158.5L33.6759 158.88L34.5 159.582L34.5 158.5L34 158.5ZM5.5 134.235L5 134.235L5 134.466L5.17587 134.616L5.5 134.235ZM5 32.7647L5 83.4997L6 83.4997L6 32.7647L5 32.7647ZM33.6759 8.11929L5.17587 32.384L5.82413 33.1454L34.3241 8.88071L33.6759 8.11929ZM34.5 83.4997L34.5 8.5L33.5 8.5L33.5 83.4997L34.5 83.4997ZM33.5 83.4997L33.5 83.5001L34.5 83.5001L34.5 83.4997L33.5 83.4997ZM33.5 83.5001L33.5 158.5L34.5 158.5L34.5 83.5001L33.5 83.5001ZM34.3241 158.119L5.82413 133.854L5.17587 134.616L33.6759 158.88L34.3241 158.119ZM6 134.235L6 83.4997L5 83.4997L5 134.235L6 134.235Z" fill="black"/>
<path d="M25.62 109.631C25.62 110.431 25.485 111.176 25.215 111.866C24.945 112.546 24.57 113.136 24.09 113.636C23.6 114.136 23.03 114.526 22.38 114.806C21.73 115.086 21.02 115.226 20.25 115.226C19.48 115.226 18.77 115.086 18.12 114.806C17.47 114.526 16.905 114.136 16.425 113.636C15.935 113.136 15.555 112.546 15.285 111.866C15.015 111.186 14.88 110.441 14.88 109.631C14.88 108.831 15.015 108.096 15.285 107.426C15.545 106.746 15.92 106.156 16.41 105.656C16.89 105.146 17.455 104.756 18.105 104.486C18.755 104.206 19.47 104.066 20.25 104.066C21.03 104.066 21.745 104.206 22.395 104.486C23.045 104.756 23.615 105.146 24.105 105.656C24.585 106.156 24.96 106.746 25.23 107.426C25.49 108.096 25.62 108.831 25.62 109.631ZM24.285 109.631C24.285 109.051 24.185 108.516 23.985 108.026C23.785 107.526 23.505 107.096 23.145 106.736C22.775 106.366 22.345 106.081 21.855 105.881C21.365 105.671 20.83 105.566 20.25 105.566C19.67 105.566 19.135 105.671 18.645 105.881C18.155 106.081 17.73 106.366 17.37 106.736C17 107.096 16.715 107.526 16.515 108.026C16.315 108.516 16.215 109.051 16.215 109.631C16.215 110.221 16.315 110.766 16.515 111.266C16.715 111.756 17 112.186 17.37 112.556C17.73 112.926 18.155 113.216 18.645 113.426C19.135 113.626 19.67 113.726 20.25 113.726C20.83 113.726 21.365 113.626 21.855 113.426C22.345 113.216 22.775 112.926 23.145 112.556C23.505 112.186 23.785 111.756 23.985 111.266C24.185 110.766 24.285 110.221 24.285 109.631ZM25.62 97.4236C25.62 98.8036 25.225 99.8886 24.435 100.679C23.645 101.469 22.49 101.864 20.97 101.864L15 101.864L15 100.364L20.91 100.364C22.08 100.364 22.935 100.109 23.475 99.5986C24.015 99.0786 24.285 98.3486 24.285 97.4086C24.285 96.4586 24.015 95.7286 23.475 95.2186C22.935 94.6986 22.08 94.4386 20.91 94.4386L15 94.4386L15 92.9836L20.97 92.9836C22.49 92.9836 23.645 93.3786 24.435 94.1686C25.225 94.9486 25.62 96.0336 25.62 97.4236ZM25.5 89.9084L15 89.9084L15 85.8134C15 84.8934 15.145 84.1084 15.435 83.4584C15.725 82.8084 16.145 82.3084 16.695 81.9584C17.245 81.6084 17.9 81.4334 18.66 81.4334C19.42 81.4334 20.075 81.6084 20.625 81.9584C21.165 82.3084 21.58 82.8084 21.87 83.4584C22.16 84.1084 22.305 84.8934 22.305 85.8134L22.305 89.0834L21.615 88.4084L25.5 88.4084L25.5 89.9084ZM25.5 82.8884L21.69 85.5584L21.69 83.9534L25.5 81.2534L25.5 82.8884ZM21.765 88.4084L21.03 89.0834L21.03 85.8584C21.03 84.8984 20.825 84.1734 20.415 83.6834C19.995 83.1834 19.41 82.9334 18.66 82.9334C17.91 82.9334 17.33 83.1834 16.92 83.6834C16.51 84.1734 16.305 84.8984 16.305 85.8584L16.305 89.0834L15.555 88.4084L21.765 88.4084ZM19.53 73.6166L19.53 68.2166L20.805 68.2166L20.805 73.6166L19.53 73.6166ZM24.195 73.4816L24.195 67.3616L25.5 67.3616L25.5 74.9816L15 74.9816L15 67.5716L16.305 67.5716L16.305 73.4816L24.195 73.4816ZM25.5 66.43L19.545 62.065L20.7 62.065L15 66.19L15 64.48L19.485 61.21L19.5 61.885L15 58.63L15 56.995L20.61 61.09L19.53 61.09L25.5 56.725L25.5 58.45L20.715 61.93L20.715 61.27L25.5 64.705L25.5 66.43ZM22.005 55.9409L20.76 55.9409L20.76 51.9059L22.005 51.9059L22.005 55.9409Z" fill="white"/>
</svg>