<svg width="206" height="53" viewBox="0 0 206 53" fill="none" xmlns="http://www.w3.org/2000/svg">
<path d="M44.2474 35V17.5H51.8224C53.389 17.5 54.739 17.7583 55.8724 18.275C57.0057 18.775 57.8807 19.5 58.4974 20.45C59.114 21.4 59.4224 22.5333 59.4224 23.85C59.4224 25.15 59.114 26.275 58.4974 27.225C57.8807 28.175 57.0057 28.9083 55.8724 29.425C54.739 29.925 53.389 30.175 51.8224 30.175H46.4974L48.2974 28.35V35H44.2474ZM48.2974 28.8L46.4974 26.875H51.5974C52.8474 26.875 53.7807 26.6083 54.3974 26.075C55.014 25.5417 55.3224 24.8 55.3224 23.85C55.3224 22.8833 55.014 22.1333 54.3974 21.6C53.7807 21.0667 52.8474 20.8 51.5974 20.8H46.4974L48.2974 18.875V28.8ZM71.0579 35.3C69.6746 35.3 68.3912 35.075 67.2079 34.625C66.0412 34.175 65.0246 33.5417 64.1579 32.725C63.3079 31.9083 62.6412 30.95 62.1579 29.85C61.6912 28.75 61.4579 27.55 61.4579 26.25C61.4579 24.95 61.6912 23.75 62.1579 22.65C62.6412 21.55 63.3162 20.5917 64.1829 19.775C65.0496 18.9583 66.0662 18.325 67.2329 17.875C68.3996 17.425 69.6662 17.2 71.0329 17.2C72.4162 17.2 73.6829 17.425 74.8329 17.875C75.9996 18.325 77.0079 18.9583 77.8579 19.775C78.7246 20.5917 79.3996 21.55 79.8829 22.65C80.3662 23.7333 80.6079 24.9333 80.6079 26.25C80.6079 27.55 80.3662 28.7583 79.8829 29.875C79.3996 30.975 78.7246 31.9333 77.8579 32.75C77.0079 33.55 75.9996 34.175 74.8329 34.625C73.6829 35.075 72.4246 35.3 71.0579 35.3ZM71.0329 31.85C71.8162 31.85 72.5329 31.7167 73.1829 31.45C73.8496 31.1833 74.4329 30.8 74.9329 30.3C75.4329 29.8 75.8162 29.2083 76.0829 28.525C76.3662 27.8417 76.5079 27.0833 76.5079 26.25C76.5079 25.4167 76.3662 24.6583 76.0829 23.975C75.8162 23.2917 75.4329 22.7 74.9329 22.2C74.4496 21.7 73.8746 21.3167 73.2079 21.05C72.5412 20.7833 71.8162 20.65 71.0329 20.65C70.2496 20.65 69.5246 20.7833 68.8579 21.05C68.2079 21.3167 67.6329 21.7 67.1329 22.2C66.6329 22.7 66.2412 23.2917 65.9579 23.975C65.6912 24.6583 65.5579 25.4167 65.5579 26.25C65.5579 27.0667 65.6912 27.825 65.9579 28.525C66.2412 29.2083 66.6246 29.8 67.1079 30.3C67.6079 30.8 68.1912 31.1833 68.8579 31.45C69.5246 31.7167 70.2496 31.85 71.0329 31.85ZM89.4017 35.3C88.0017 35.3 86.66 35.1167 85.3767 34.75C84.0933 34.3667 83.06 33.875 82.2767 33.275L83.6517 30.225C84.4017 30.7583 85.285 31.2 86.3017 31.55C87.335 31.8833 88.3767 32.05 89.4267 32.05C90.2267 32.05 90.8683 31.975 91.3517 31.825C91.8517 31.6583 92.2183 31.4333 92.4517 31.15C92.685 30.8667 92.8017 30.5417 92.8017 30.175C92.8017 29.7083 92.6183 29.3417 92.2517 29.075C91.885 28.7917 91.4017 28.5667 90.8017 28.4C90.2017 28.2167 89.535 28.05 88.8017 27.9C88.085 27.7333 87.36 27.5333 86.6267 27.3C85.91 27.0667 85.2517 26.7667 84.6517 26.4C84.0517 26.0333 83.56 25.55 83.1767 24.95C82.81 24.35 82.6267 23.5833 82.6267 22.65C82.6267 21.65 82.8933 20.7417 83.4267 19.925C83.9767 19.0917 84.7933 18.4333 85.8767 17.95C86.9767 17.45 88.3517 17.2 90.0017 17.2C91.1017 17.2 92.185 17.3333 93.2517 17.6C94.3183 17.85 95.26 18.2333 96.0767 18.75L94.8267 21.825C94.01 21.3583 93.1933 21.0167 92.3767 20.8C91.56 20.5667 90.76 20.45 89.9767 20.45C89.1933 20.45 88.5517 20.5417 88.0517 20.725C87.5517 20.9083 87.1933 21.15 86.9767 21.45C86.76 21.7333 86.6517 22.0667 86.6517 22.45C86.6517 22.9 86.835 23.2667 87.2017 23.55C87.5683 23.8167 88.0517 24.0333 88.6517 24.2C89.2517 24.3667 89.91 24.5333 90.6267 24.7C91.36 24.8667 92.085 25.0583 92.8017 25.275C93.535 25.4917 94.2017 25.7833 94.8017 26.15C95.4017 26.5167 95.885 27 96.2517 27.6C96.635 28.2 96.8267 28.9583 96.8267 29.875C96.8267 30.8583 96.5517 31.7583 96.0017 32.575C95.4517 33.3917 94.6267 34.05 93.5267 34.55C92.4433 35.05 91.0683 35.3 89.4017 35.3ZM102.975 35V20.8H97.3749V17.5H112.625V20.8H107.025V35H102.975ZM118.529 24.55H126.954V27.7H118.529V24.55ZM118.829 31.75H128.354V35H114.804V17.5H128.029V20.75H118.829V31.75ZM131.576 35V17.5H139.151C140.718 17.5 142.068 17.7583 143.201 18.275C144.335 18.775 145.21 19.5 145.826 20.45C146.443 21.4 146.751 22.5333 146.751 23.85C146.751 25.15 146.443 26.275 145.826 27.225C145.21 28.1583 144.335 28.875 143.201 29.375C142.068 29.875 140.718 30.125 139.151 30.125H133.826L135.626 28.35V35H131.576ZM142.701 35L138.326 28.65H142.651L147.076 35H142.701ZM135.626 28.8L133.826 26.9H138.926C140.176 26.9 141.11 26.6333 141.726 26.1C142.343 25.55 142.651 24.8 142.651 23.85C142.651 22.8833 142.343 22.1333 141.726 21.6C141.11 21.0667 140.176 20.8 138.926 20.8H133.826L135.626 18.875V28.8ZM155.71 35.3C154.31 35.3 152.969 35.1167 151.685 34.75C150.402 34.3667 149.369 33.875 148.585 33.275L149.96 30.225C150.71 30.7583 151.594 31.2 152.61 31.55C153.644 31.8833 154.685 32.05 155.735 32.05C156.535 32.05 157.177 31.975 157.66 31.825C158.16 31.6583 158.527 31.4333 158.76 31.15C158.994 30.8667 159.11 30.5417 159.11 30.175C159.11 29.7083 158.927 29.3417 158.56 29.075C158.194 28.7917 157.71 28.5667 157.11 28.4C156.51 28.2167 155.844 28.05 155.11 27.9C154.394 27.7333 153.669 27.5333 152.935 27.3C152.219 27.0667 151.56 26.7667 150.96 26.4C150.36 26.0333 149.869 25.55 149.485 24.95C149.119 24.35 148.935 23.5833 148.935 22.65C148.935 21.65 149.202 20.7417 149.735 19.925C150.285 19.0917 151.102 18.4333 152.185 17.95C153.285 17.45 154.66 17.2 156.31 17.2C157.41 17.2 158.494 17.3333 159.56 17.6C160.627 17.85 161.569 18.2333 162.385 18.75L161.135 21.825C160.319 21.3583 159.502 21.0167 158.685 20.8C157.869 20.5667 157.069 20.45 156.285 20.45C155.502 20.45 154.86 20.5417 154.36 20.725C153.86 20.9083 153.502 21.15 153.285 21.45C153.069 21.7333 152.96 22.0667 152.96 22.45C152.96 22.9 153.144 23.2667 153.51 23.55C153.877 23.8167 154.36 24.0333 154.96 24.2C155.56 24.3667 156.219 24.5333 156.935 24.7C157.669 24.8667 158.394 25.0583 159.11 25.275C159.844 25.4917 160.51 25.7833 161.11 26.15C161.71 26.5167 162.194 27 162.56 27.6C162.944 28.2 163.135 28.9583 163.135 29.875C163.135 30.8583 162.86 31.7583 162.31 32.575C161.76 33.3917 160.935 34.05 159.835 34.55C158.752 35.05 157.377 35.3 155.71 35.3Z" fill="black"/>
<path d="M1 52L25.3231 1H180.285L205 52" stroke="black"/>
</svg>
