<svg xmlns="http://www.w3.org/2000/svg" fill="none" viewBox="5 7.42 29.5 152.16">
<path fill-rule="evenodd" clip-rule="evenodd" d="M5.5 83.4999L5.5 32.7649L34 8.50024L34 83.5L34 83.5003L34 158.5L5.5 134.235L5.5 83.4999Z" fill="#26A5DD"/>
<path d="M5.5 32.7649L5.17587 32.3842L5 32.5339L5 32.7649L5.5 32.7649ZM5.5 83.4999L5 83.4999L5.5 83.4999ZM34 8.50024L34.5 8.50024L34.5 7.41788L33.6759 8.11954L34 8.50024ZM34 83.5L34.5 83.5L34 83.5ZM34 83.5003L33.5 83.5003L34 83.5003ZM34 158.5L33.6759 158.881L34.5 159.582L34.5 158.5L34 158.5ZM5.5 134.235L5 134.235L5 134.466L5.17587 134.616L5.5 134.235ZM5 32.7649L5 83.4999L6 83.4999L6 32.7649L5 32.7649ZM33.6759 8.11954L5.17587 32.3842L5.82413 33.1456L34.3241 8.88095L33.6759 8.11954ZM34.5 83.5L34.5 8.50024L33.5 8.50024L33.5 83.5L34.5 83.5ZM33.5 83.5L33.5 83.5003L34.5 83.5003L34.5 83.5L33.5 83.5ZM33.5 83.5003L33.5 158.5L34.5 158.5L34.5 83.5003L33.5 83.5003ZM34.3241 158.119L5.82413 133.855L5.17587 134.616L33.6759 158.881L34.3241 158.119ZM6 134.235L6 83.4999L5 83.4999L5 134.235L6 134.235Z" fill="black"/>
<path d="M25.5 112.672L15 112.672L15 108.577C15 107.657 15.145 106.872 15.435 106.222C15.725 105.572 16.145 105.072 16.695 104.722C17.245 104.372 17.9 104.197 18.66 104.197C19.42 104.197 20.075 104.372 20.625 104.722C21.165 105.072 21.585 105.572 21.885 106.222C22.175 106.872 22.32 107.657 22.32 108.577L22.32 111.847L21.615 111.172L25.5 111.172L25.5 112.672ZM21.765 111.172L21.015 111.847L21.015 108.622C21.015 107.662 20.81 106.937 20.4 106.447C19.99 105.947 19.41 105.697 18.66 105.697C17.91 105.697 17.33 105.947 16.92 106.447C16.51 106.937 16.305 107.662 16.305 108.622L16.305 111.847L15.555 111.172L21.765 111.172ZM25.62 97.1069C25.62 97.9069 25.485 98.6519 25.215 99.3419C24.945 100.022 24.57 100.612 24.09 101.112C23.6 101.612 23.03 102.002 22.38 102.282C21.73 102.562 21.02 102.702 20.25 102.702C19.48 102.702 18.77 102.562 18.12 102.282C17.47 102.002 16.905 101.612 16.425 101.112C15.935 100.612 15.555 100.022 15.285 99.3419C15.015 98.6619 14.88 97.9169 14.88 97.1069C14.88 96.3069 15.015 95.5719 15.285 94.9019C15.545 94.2219 15.92 93.6319 16.41 93.1319C16.89 92.6219 17.455 92.2319 18.105 91.9619C18.755 91.6819 19.47 91.5419 20.25 91.5419C21.03 91.5419 21.745 91.6819 22.395 91.9619C23.045 92.2319 23.615 92.6219 24.105 93.1319C24.585 93.6319 24.96 94.2219 25.23 94.9019C25.49 95.5719 25.62 96.3069 25.62 97.1069ZM24.285 97.1069C24.285 96.5269 24.185 95.9919 23.985 95.5019C23.785 95.0019 23.505 94.5719 23.145 94.2119C22.775 93.8419 22.345 93.5569 21.855 93.3569C21.365 93.1469 20.83 93.0419 20.25 93.0419C19.67 93.0419 19.135 93.1469 18.645 93.3569C18.155 93.5569 17.73 93.8419 17.37 94.2119C17 94.5719 16.715 95.0019 16.515 95.5019C16.315 95.9919 16.215 96.5269 16.215 97.1069C16.215 97.6969 16.315 98.2419 16.515 98.7419C16.715 99.2319 17 99.6619 17.37 100.032C17.73 100.402 18.155 100.692 18.645 100.902C19.135 101.102 19.67 101.202 20.25 101.202C20.83 101.202 21.365 101.102 21.855 100.902C22.345 100.692 22.775 100.402 23.145 100.032C23.505 99.6619 23.785 99.2319 23.985 98.7419C24.185 98.2419 24.285 97.6969 24.285 97.1069ZM25.5 87.3107L16.305 87.3107L16.305 90.9107L15 90.9107L15 82.2257L16.305 82.2257L16.305 85.8257L25.5 85.8257L25.5 87.3107ZM25.5 80.592L15 80.592L15 79.092L25.5 79.092L25.5 80.592ZM25.62 71.2084C25.62 72.0084 25.485 72.7534 25.215 73.4434C24.945 74.1234 24.57 74.7134 24.09 75.2134C23.6 75.7134 23.03 76.1034 22.38 76.3834C21.73 76.6634 21.02 76.8034 20.25 76.8034C19.48 76.8034 18.77 76.6634 18.12 76.3834C17.47 76.1034 16.905 75.7134 16.425 75.2134C15.935 74.7134 15.555 74.1234 15.285 73.4434C15.015 72.7634 14.88 72.0184 14.88 71.2084C14.88 70.4084 15.015 69.6734 15.285 69.0034C15.545 68.3234 15.92 67.7334 16.41 67.2334C16.89 66.7234 17.455 66.3334 18.105 66.0634C18.755 65.7834 19.47 65.6434 20.25 65.6434C21.03 65.6434 21.745 65.7834 22.395 66.0634C23.045 66.3334 23.615 66.7234 24.105 67.2334C24.585 67.7334 24.96 68.3234 25.23 69.0034C25.49 69.6734 25.62 70.4084 25.62 71.2084ZM24.285 71.2084C24.285 70.6284 24.185 70.0934 23.985 69.6034C23.785 69.1034 23.505 68.6734 23.145 68.3134C22.775 67.9434 22.345 67.6584 21.855 67.4584C21.365 67.2484 20.83 67.1434 20.25 67.1434C19.67 67.1434 19.135 67.2484 18.645 67.4584C18.155 67.6584 17.73 67.9434 17.37 68.3134C17 68.6734 16.715 69.1034 16.515 69.6034C16.315 70.0934 16.215 70.6284 16.215 71.2084C16.215 71.7984 16.315 72.3434 16.515 72.8434C16.715 73.3334 17 73.7634 17.37 74.1334C17.73 74.5034 18.155 74.7934 18.645 75.0034C19.135 75.2034 19.67 75.3034 20.25 75.3034C20.83 75.3034 21.365 75.2034 21.855 75.0034C22.345 74.7934 22.775 74.5034 23.145 74.1334C23.505 73.7634 23.785 73.3334 23.985 72.8434C24.185 72.3434 24.285 71.7984 24.285 71.2084ZM25.5 63.3508L15 63.3508L15 62.1208L23.625 55.1758L23.625 55.8208L15 55.8208L15 54.3208L25.5 54.3208L25.5 55.5508L16.875 62.4958L16.875 61.8508L25.5 61.8508L25.5 63.3508Z" fill="white"/>
</svg>