<svg xmlns="http://www.w3.org/2000/svg" fill="none" viewBox="5 7.42 29.5 152.16">
<path fill-rule="evenodd" clip-rule="evenodd" d="M5.5 83.4999L5.5 32.7649L34 8.50024L34 83.5L34 83.5003L34 158.5L5.5 134.235L5.5 83.4999Z" fill="#006E62"/>
<path d="M5.5 32.7649L5.17587 32.3842L5 32.5339L5 32.7649L5.5 32.7649ZM5.5 83.4999L5 83.4999L5.5 83.4999ZM34 8.50024L34.5 8.50024L34.5 7.41788L33.6759 8.11954L34 8.50024ZM34 158.5L33.6759 158.881L34.5 159.582L34.5 158.5L34 158.5ZM5.5 134.235L5 134.235L5 134.466L5.17587 134.616L5.5 134.235ZM5 32.7649L5 83.4999L6 83.4999L6 32.7649L5 32.7649ZM33.6759 8.11954L5.17587 32.3842L5.82413 33.1456L34.3241 8.88095L33.6759 8.11954ZM34.5 83.5L34.5 8.50024L33.5 8.50024L33.5 83.5L34.5 83.5ZM33.5 83.5L33.5 83.5003L34.5 83.5003L34.5 83.5L33.5 83.5ZM33.5 83.5003L33.5 158.5L34.5 158.5L34.5 83.5003L33.5 83.5003ZM34.3241 158.119L5.82413 133.855L5.17587 134.616L33.6759 158.881L34.3241 158.119ZM6 134.235L6 83.4999L5 83.4999L5 134.235L6 134.235Z" fill="black"/>
<path d="M25.5 110.9L15 110.9L15 106.805C15 105.885 15.145 105.1 15.435 104.45C15.725 103.8 16.145 103.3 16.695 102.95C17.245 102.6 17.9 102.425 18.66 102.425C19.42 102.425 20.075 102.6 20.625 102.95C21.165 103.3 21.585 103.8 21.885 104.45C22.175 105.1 22.32 105.885 22.32 106.805L22.32 110.075L21.615 109.4L25.5 109.4L25.5 110.9ZM21.765 109.4L21.015 110.075L21.015 106.85C21.015 105.89 20.81 105.165 20.4 104.675C19.99 104.175 19.41 103.925 18.66 103.925C17.91 103.925 17.33 104.175 16.92 104.675C16.51 105.165 16.305 105.89 16.305 106.85L16.305 110.075L15.555 109.4L21.765 109.4ZM25.5 100.221L15 100.221L15 96.1259C15 95.2059 15.145 94.4209 15.435 93.7709C15.725 93.1209 16.145 92.6209 16.695 92.2709C17.245 91.9209 17.9 91.7459 18.66 91.7459C19.42 91.7459 20.075 91.9209 20.625 92.2709C21.165 92.6209 21.58 93.1209 21.87 93.7709C22.16 94.4209 22.305 95.2059 22.305 96.1259L22.305 99.3959L21.615 98.7209L25.5 98.7209L25.5 100.221ZM25.5 93.2009L21.69 95.8709L21.69 94.2659L25.5 91.5659L25.5 93.2009ZM21.765 98.7209L21.03 99.3959L21.03 96.1709C21.03 95.2109 20.825 94.4859 20.415 93.9959C19.995 93.4959 19.41 93.2459 18.66 93.2459C17.91 93.2459 17.33 93.4959 16.92 93.9959C16.51 94.4859 16.305 95.2109 16.305 96.1709L16.305 99.3959L15.555 98.7209L21.765 98.7209ZM25.5 89.3225L15 89.3225L15 87.8225L25.5 87.8225L25.5 89.3225ZM22.965 83.3589L21.135 83.4339L15 77.4789L15 75.7689L19.86 80.3739L20.79 81.2139L22.965 83.3589ZM25.5 84.6789L15 84.6789L15 83.1789L25.5 83.1789L25.5 84.6789ZM25.5 77.2389L20.49 81.5439L19.38 80.5389L25.5 75.4839L25.5 77.2389ZM19.53 72.5327L19.53 67.1327L20.805 67.1327L20.805 72.5327L19.53 72.5327ZM24.195 72.3977L24.195 66.2777L25.5 66.2777L25.5 73.8977L15 73.8977L15 66.4877L16.305 66.4877L16.305 72.3977L24.195 72.3977ZM25.5 63.8488L15 63.8488L15 59.7538C15 58.8338 15.145 58.0488 15.435 57.3988C15.725 56.7488 16.145 56.2488 16.695 55.8988C17.245 55.5488 17.9 55.3738 18.66 55.3738C19.42 55.3738 20.075 55.5488 20.625 55.8988C21.165 56.2488 21.58 56.7488 21.87 57.3988C22.16 58.0488 22.305 58.8338 22.305 59.7538L22.305 63.0238L21.615 62.3488L25.5 62.3488L25.5 63.8488ZM25.5 56.8288L21.69 59.4988L21.69 57.8938L25.5 55.1938L25.5 56.8288ZM21.765 62.3488L21.03 63.0238L21.03 59.7988C21.03 58.8388 20.825 58.1138 20.415 57.6238C19.995 57.1238 19.41 56.8738 18.66 56.8738C17.91 56.8738 17.33 57.1238 16.92 57.6238C16.51 58.1138 16.305 58.8388 16.305 59.7988L16.305 63.0238L15.555 62.3488L21.765 62.3488Z" fill="white"/>
</svg>