<svg xmlns="http://www.w3.org/2000/svg" fill="none" viewBox="5 0.34 29.5 168.32">
<path fill-rule="evenodd" clip-rule="evenodd" d="M5.5 84.4997L5.5 28.3529L34 1.5L34 84.4998L34 84.5001L34 167.5L5.5 140.647L5.5 84.4997Z" fill="#362384"/>
<path d="M5.5 28.3529L5.15712 27.989L5 28.137L5 28.3529L5.5 28.3529ZM5.5 84.4997L5 84.4997L5.5 84.4997ZM34 1.5L34.5 1.5L34.5 0.341918L33.6571 1.13609L34 1.5ZM34 84.4998L33.5 84.4998L34 84.4998ZM34 84.5001L34.5 84.5001L34 84.5001ZM34 167.5L33.6571 167.864L34.5 168.658L34.5 167.5L34 167.5ZM5.5 140.647L5 140.647L5 140.863L5.15712 141.011L5.5 140.647ZM5 28.3529L5 84.4997L6 84.4997L6 28.3529L5 28.3529ZM33.6571 1.13609L5.15712 27.989L5.84288 28.7168L34.3429 1.86391L33.6571 1.13609ZM34.5 84.4998L34.5 1.5L33.5 1.5L33.5 84.4998L34.5 84.4998ZM33.5 84.4998L33.5 84.5001L34.5 84.5001L34.5 84.4998L33.5 84.4998ZM33.5 84.5001L33.5 167.5L34.5 167.5L34.5 84.5001L33.5 84.5001ZM34.3429 167.136L5.84288 140.283L5.15712 141.011L33.6571 167.864L34.3429 167.136ZM6 140.647L6 84.4997L5 84.4997L5 140.647L6 140.647Z" fill="black"/>
<path d="M25.62 137.492C25.62 138.292 25.5 139.057 25.26 139.787C25.01 140.517 24.69 141.092 24.3 141.512L23.13 140.957C23.48 140.557 23.77 140.047 24 139.427C24.23 138.807 24.345 138.162 24.345 137.492C24.345 136.882 24.275 136.387 24.135 136.007C23.995 135.627 23.805 135.347 23.565 135.167C23.315 134.987 23.035 134.897 22.725 134.897C22.365 134.897 22.075 135.017 21.855 135.257C21.635 135.487 21.46 135.792 21.33 136.172C21.19 136.542 21.07 136.952 20.97 137.402C20.87 137.852 20.755 138.307 20.625 138.767C20.485 139.217 20.31 139.632 20.1 140.012C19.89 140.382 19.61 140.682 19.26 140.912C18.9 141.142 18.44 141.257 17.88 141.257C17.34 141.257 16.845 141.117 16.395 140.837C15.935 140.547 15.57 140.107 15.3 139.517C15.02 138.917 14.88 138.157 14.88 137.237C14.88 136.627 14.96 136.022 15.12 135.422C15.28 134.822 15.51 134.302 15.81 133.862L17.01 134.357C16.71 134.807 16.495 135.282 16.365 135.782C16.225 136.282 16.155 136.767 16.155 137.237C16.155 137.827 16.23 138.312 16.38 138.692C16.53 139.072 16.73 139.352 16.98 139.532C17.23 139.702 17.51 139.787 17.82 139.787C18.19 139.787 18.485 139.672 18.705 139.442C18.925 139.202 19.1 138.897 19.23 138.527C19.36 138.147 19.48 137.732 19.59 137.282C19.69 136.832 19.805 136.382 19.935 135.932C20.065 135.472 20.235 135.057 20.445 134.687C20.655 134.307 20.935 134.002 21.285 133.772C21.635 133.542 22.085 133.427 22.635 133.427C23.165 133.427 23.66 133.572 24.12 133.862C24.57 134.152 24.935 134.602 25.215 135.212C25.485 135.812 25.62 136.572 25.62 137.492ZM25.5 128.821L15 132.331L15 130.786L24.69 127.561L24.69 128.341L15 124.996L15 123.616L24.69 120.346L24.69 121.096L15 117.826L15 116.401L25.5 119.911L25.5 121.486L16.515 124.546L16.515 124.141L25.5 127.216L25.5 128.821ZM25.5 114.566L15 114.566L15 113.066L25.5 113.066L25.5 114.566ZM25.5 107.837L16.305 107.837L16.305 111.437L15 111.437L15 102.752L16.305 102.752L16.305 106.352L25.5 106.352L25.5 107.837ZM25.62 96.5698C25.62 97.3698 25.49 98.1098 25.23 98.7898C24.96 99.4598 24.585 100.045 24.105 100.545C23.615 101.035 23.045 101.42 22.395 101.7C21.745 101.98 21.03 102.12 20.25 102.12C19.47 102.12 18.755 101.98 18.105 101.7C17.455 101.42 16.89 101.03 16.41 100.53C15.92 100.03 15.545 99.4448 15.285 98.7748C15.015 98.0948 14.88 97.3548 14.88 96.5548C14.88 95.7448 15.02 94.9998 15.3 94.3198C15.57 93.6298 15.975 93.0448 16.515 92.5648L17.46 93.5398C17.04 93.9398 16.73 94.3898 16.53 94.8898C16.32 95.3898 16.215 95.9248 16.215 96.4948C16.215 97.0848 16.315 97.6348 16.515 98.1448C16.715 98.6448 16.995 99.0798 17.355 99.4498C17.715 99.8198 18.145 100.11 18.645 100.32C19.135 100.52 19.67 100.62 20.25 100.62C20.83 100.62 21.37 100.52 21.87 100.32C22.36 100.11 22.785 99.8198 23.145 99.4498C23.505 99.0798 23.785 98.6448 23.985 98.1448C24.185 97.6348 24.285 97.0848 24.285 96.4948C24.285 95.9248 24.185 95.3898 23.985 94.8898C23.775 94.3898 23.455 93.9398 23.025 93.5398L23.97 92.5648C24.51 93.0448 24.92 93.6298 25.2 94.3198C25.48 94.9998 25.62 95.7498 25.62 96.5698ZM15 82.895L15 81.395L25.5 81.395L25.5 82.895L15 82.895ZM25.5 88.925L25.5 90.425L15 90.425L15 88.925L25.5 88.925ZM20.82 82.76L20.82 89.075L19.515 89.075L19.515 82.76L20.82 82.76ZM22.005 78.9721L20.76 78.9721L20.76 74.9371L22.005 74.9371L22.005 78.9721ZM25.62 69.699C25.62 70.499 25.5 71.264 25.26 71.994C25.01 72.724 24.69 73.299 24.3 73.719L23.13 73.164C23.48 72.764 23.77 72.254 24 71.634C24.23 71.014 24.345 70.369 24.345 69.699C24.345 69.089 24.275 68.594 24.135 68.214C23.995 67.834 23.805 67.554 23.565 67.374C23.315 67.194 23.035 67.104 22.725 67.104C22.365 67.104 22.075 67.224 21.855 67.464C21.635 67.694 21.46 67.999 21.33 68.379C21.19 68.749 21.07 69.159 20.97 69.609C20.87 70.059 20.755 70.514 20.625 70.974C20.485 71.424 20.31 71.839 20.1 72.219C19.89 72.589 19.61 72.889 19.26 73.119C18.9 73.349 18.44 73.464 17.88 73.464C17.34 73.464 16.845 73.324 16.395 73.044C15.935 72.754 15.57 72.314 15.3 71.724C15.02 71.124 14.88 70.364 14.88 69.444C14.88 68.834 14.96 68.229 15.12 67.629C15.28 67.029 15.51 66.509 15.81 66.069L17.01 66.564C16.71 67.014 16.495 67.489 16.365 67.989C16.225 68.489 16.155 68.974 16.155 69.444C16.155 70.034 16.23 70.519 16.38 70.899C16.53 71.279 16.73 71.559 16.98 71.739C17.23 71.909 17.51 71.994 17.82 71.994C18.19 71.994 18.485 71.879 18.705 71.649C18.925 71.409 19.1 71.104 19.23 70.734C19.36 70.354 19.48 69.939 19.59 69.489C19.69 69.039 19.805 68.589 19.935 68.139C20.065 67.679 20.235 67.264 20.445 66.894C20.655 66.514 20.935 66.209 21.285 65.979C21.635 65.749 22.085 65.634 22.635 65.634C23.165 65.634 23.66 65.779 24.12 66.069C24.57 66.359 24.935 66.809 25.215 67.419C25.485 68.019 25.62 68.779 25.62 69.699ZM25.5 61.0276L15 64.5376L15 62.9926L24.69 59.7676L24.69 60.5476L15 57.2026L15 55.8226L24.69 52.5526L24.69 53.3026L15 50.0326L15 48.6076L25.5 52.1176L25.5 53.6926L16.515 56.7526L16.515 56.3476L25.5 59.4226L25.5 61.0276ZM25.5 48.6996L15 43.9446L15 42.4596L25.5 37.6896L25.5 39.2646L15.84 43.5096L15.84 42.9096L25.5 47.1546L25.5 48.6996ZM22.875 46.6746L21.675 46.2696L21.675 40.3596L22.875 39.9246L22.875 46.6746ZM25.5 36.1232L15 36.1232L15 32.0282C15 31.1082 15.145 30.3232 15.435 29.6732C15.725 29.0232 16.145 28.5232 16.695 28.1732C17.245 27.8232 17.9 27.6482 18.66 27.6482C19.42 27.6482 20.075 27.8232 20.625 28.1732C21.165 28.5232 21.585 29.0232 21.885 29.6732C22.175 30.3232 22.32 31.1082 22.32 32.0282L22.32 35.2982L21.615 34.6232L25.5 34.6232L25.5 36.1232ZM21.765 34.6232L21.015 35.2982L21.015 32.0732C21.015 31.1132 20.81 30.3882 20.4 29.8982C19.99 29.3982 19.41 29.1482 18.66 29.1482C17.91 29.1482 17.33 29.3982 16.92 29.8982C16.51 30.3882 16.305 31.1132 16.305 32.0732L16.305 35.2982L15.555 34.6232L21.765 34.6232Z" fill="white"/>
</svg>