<svg xmlns="http://www.w3.org/2000/svg" fill="none" viewBox="5 7.42 29.5 152.16">
<path fill-rule="evenodd" clip-rule="evenodd" d="M5.5 83.4999L5.5 32.7649L34 8.50024L34 83.5L34 83.5003L34 158.5L5.5 134.235L5.5 83.4999Z" fill="#004C9E"/>
<path d="M5.5 32.7649L5.17587 32.3842L5 32.5339L5 32.7649L5.5 32.7649ZM5.5 83.4999L5 83.4999L5.5 83.4999ZM34 8.50024L34.5 8.50024L34.5 7.41788L33.6759 8.11954L34 8.50024ZM34 83.5L34.5 83.5L34 83.5ZM34 83.5003L33.5 83.5003L34 83.5003ZM34 158.5L33.6759 158.881L34.5 159.582L34.5 158.5L34 158.5ZM5.5 134.235L5 134.235L5 134.466L5.17587 134.616L5.5 134.235ZM5 32.7649L5 83.4999L6 83.4999L6 32.7649L5 32.7649ZM33.6759 8.11954L5.17587 32.3842L5.82413 33.1456L34.3241 8.88095L33.6759 8.11954ZM34.5 83.5L34.5 8.50024L33.5 8.50024L33.5 83.5L34.5 83.5ZM33.5 83.5L33.5 83.5003L34.5 83.5003L34.5 83.5L33.5 83.5ZM33.5 83.5003L33.5 158.5L34.5 158.5L34.5 83.5003L33.5 83.5003ZM34.3241 158.119L5.82413 133.855L5.17587 134.616L33.6759 158.881L34.3241 158.119ZM6 134.235L6 83.4999L5 83.4999L5 134.235L6 134.235Z" fill="black"/>
<path d="M25.5 108.47L16.305 108.47L16.305 112.07L15 112.07L15 103.385L16.305 103.385L16.305 106.985L25.5 106.985L25.5 108.47ZM25.5 103.869L15 99.114L15 97.629L25.5 92.859L25.5 94.434L15.84 98.679L15.84 98.079L25.5 102.324L25.5 103.869ZM22.875 101.844L21.675 101.439L21.675 95.529L22.875 95.094L22.875 101.844ZM25.5 91.2927L15 91.2927L15 89.7927L25.5 89.7927L25.5 91.2927ZM25.5 86.6491L15 86.6491L15 85.4191L23.625 78.4741L23.625 79.1191L15 79.1191L15 77.6191L25.5 77.6191L25.5 78.8491L16.875 85.7941L16.875 85.1491L25.5 85.1491L25.5 86.6491ZM25.62 70.1263C25.62 71.5063 25.225 72.5913 24.435 73.3813C23.645 74.1713 22.49 74.5663 20.97 74.5663L15 74.5663L15 73.0663L20.91 73.0663C22.08 73.0663 22.935 72.8113 23.475 72.3013C24.015 71.7813 24.285 71.0513 24.285 70.1113C24.285 69.1613 24.015 68.4313 23.475 67.9213C22.935 67.4013 22.08 67.1413 20.91 67.1413L15 67.1413L15 65.6863L20.97 65.6863C22.49 65.6863 23.645 66.0813 24.435 66.8713C25.225 67.6513 25.62 68.7363 25.62 70.1263ZM25.62 59.551C25.62 60.351 25.5 61.116 25.26 61.846C25.01 62.576 24.69 63.151 24.3 63.571L23.13 63.016C23.48 62.616 23.77 62.106 24 61.486C24.23 60.866 24.345 60.221 24.345 59.551C24.345 58.941 24.275 58.446 24.135 58.066C23.995 57.686 23.805 57.406 23.565 57.226C23.315 57.046 23.035 56.956 22.725 56.956C22.365 56.956 22.075 57.076 21.855 57.316C21.635 57.546 21.46 57.851 21.33 58.231C21.19 58.601 21.07 59.011 20.97 59.461C20.87 59.911 20.755 60.366 20.625 60.826C20.485 61.276 20.31 61.691 20.1 62.071C19.89 62.441 19.61 62.741 19.26 62.971C18.9 63.201 18.44 63.316 17.88 63.316C17.34 63.316 16.845 63.176 16.395 62.896C15.935 62.606 15.57 62.166 15.3 61.576C15.02 60.976 14.88 60.216 14.88 59.296C14.88 58.686 14.96 58.081 15.12 57.481C15.28 56.881 15.51 56.361 15.81 55.921L17.01 56.416C16.71 56.866 16.495 57.341 16.365 57.841C16.225 58.341 16.155 58.826 16.155 59.296C16.155 59.886 16.23 60.371 16.38 60.751C16.53 61.131 16.73 61.411 16.98 61.591C17.23 61.761 17.51 61.846 17.82 61.846C18.19 61.846 18.485 61.731 18.705 61.501C18.925 61.261 19.1 60.956 19.23 60.586C19.36 60.206 19.48 59.791 19.59 59.341C19.69 58.891 19.805 58.441 19.935 57.991C20.065 57.531 20.235 57.116 20.445 56.746C20.655 56.366 20.935 56.061 21.285 55.831C21.635 55.601 22.085 55.486 22.635 55.486C23.165 55.486 23.66 55.631 24.12 55.921C24.57 56.211 24.935 56.661 25.215 57.271C25.485 57.871 25.62 58.631 25.62 59.551Z" fill="white"/>
</svg>