<svg xmlns="http://www.w3.org/2000/svg" fill="none" viewBox="10.5 36.99 20 91.95">
<path fill-rule="evenodd" clip-rule="evenodd" d="M30 38L30 82.9604L30 82.9605L30 127.921L11 113.375L11 82.9605L11 82.9604L11 52.546L30 38Z" fill="black"/>
<path d="M30 82.9604H30.5H30ZM30 38H30.5L30.5 36.9875L29.6961 37.603L30 38ZM30 82.9605H29.5H30ZM30 127.921L29.6961 128.318L30.5 128.933L30.5 127.921H30ZM11 113.375H10.5L10.5 113.622L10.6961 113.772L11 113.375ZM11 52.546L10.6961 52.149L10.5 52.2991L10.5 52.546H11ZM30.5 82.9604L30.5 38H29.5L29.5 82.9604H30.5ZM29.5 82.9604L29.5 82.9605L30.5 82.9605L30.5 82.9604L29.5 82.9604ZM29.5 82.9605L29.5 127.921H30.5L30.5 82.9605H29.5ZM30.304 127.524L11.3039 112.978L10.6961 113.772L29.6961 128.318L30.304 127.524ZM11.5 113.375L11.5 82.9605H10.5L10.5 113.375H11.5ZM11.5 82.9605L11.5 82.9604H10.5L10.5 82.9605H11.5ZM10.5 52.546L10.5 82.9604H11.5L11.5 52.546H10.5ZM29.6961 37.603L10.6961 52.149L11.3039 52.943L30.304 38.397L29.6961 37.603Z" fill="black"/>
<path d="M25 106.081L15.805 106.081L15.805 109.681L14.5 109.681L14.5 100.996L15.805 100.996L15.805 104.596L25 104.596L25 106.081ZM19.03 97.997L19.03 92.597L20.305 92.597L20.305 97.997L19.03 97.997ZM23.695 97.862L23.695 91.742L25 91.742L25 99.362L14.5 99.362L14.5 91.952L15.805 91.952L15.805 97.862L23.695 97.862ZM25 90.9032L14.5 86.1482L14.5 84.6632L25 79.8932L25 81.4682L15.34 85.7132L15.34 85.1132L25 89.3582L25 90.9032ZM22.375 88.8782L21.175 88.4732L21.175 82.5632L22.375 82.1282L22.375 88.8782ZM25 78.3269L14.5 78.3269L14.5 77.0969L22.435 72.3869L22.435 73.0469L14.5 68.3969L14.5 67.1669L25 67.1519L25 68.5919L16.765 68.6069L16.765 68.2619L23.725 72.4019L23.725 73.0919L16.765 77.2619L16.765 76.8869L25 76.8869L25 78.3269ZM25.12 60.9407C25.12 61.7407 25 62.5057 24.76 63.2357C24.51 63.9657 24.19 64.5407 23.8 64.9607L22.63 64.4057C22.98 64.0057 23.27 63.4957 23.5 62.8757C23.73 62.2557 23.845 61.6107 23.845 60.9407C23.845 60.3307 23.775 59.8357 23.635 59.4557C23.495 59.0757 23.305 58.7957 23.065 58.6157C22.815 58.4357 22.535 58.3457 22.225 58.3457C21.865 58.3457 21.575 58.4657 21.355 58.7057C21.135 58.9357 20.96 59.2407 20.83 59.6207C20.69 59.9907 20.57 60.4007 20.47 60.8507C20.37 61.3007 20.255 61.7557 20.125 62.2157C19.985 62.6657 19.81 63.0807 19.6 63.4607C19.39 63.8307 19.11 64.1307 18.76 64.3607C18.4 64.5907 17.94 64.7057 17.38 64.7057C16.84 64.7057 16.345 64.5657 15.895 64.2857C15.435 63.9957 15.07 63.5557 14.8 62.9657C14.52 62.3657 14.38 61.6057 14.38 60.6857C14.38 60.0757 14.46 59.4707 14.62 58.8707C14.78 58.2707 15.01 57.7507 15.31 57.3107L16.51 57.8057C16.21 58.2557 15.995 58.7307 15.865 59.2307C15.725 59.7307 15.655 60.2157 15.655 60.6857C15.655 61.2757 15.73 61.7607 15.88 62.1407C16.03 62.5207 16.23 62.8007 16.48 62.9807C16.73 63.1507 17.01 63.2357 17.32 63.2357C17.69 63.2357 17.985 63.1207 18.205 62.8907C18.425 62.6507 18.6 62.3457 18.73 61.9757C18.86 61.5957 18.98 61.1807 19.09 60.7307C19.19 60.2807 19.305 59.8307 19.435 59.3807C19.565 58.9207 19.735 58.5057 19.945 58.1357C20.155 57.7557 20.435 57.4507 20.785 57.2207C21.135 56.9907 21.585 56.8757 22.135 56.8757C22.665 56.8757 23.16 57.0207 23.62 57.3107C24.07 57.6007 24.435 58.0507 24.715 58.6607C24.985 59.2607 25.12 60.0207 25.12 60.9407Z" fill="white"/>
</svg>