<svg width="1728" height="426" viewBox="0 0 1728 426" fill="none" xmlns="http://www.w3.org/2000/svg">
<path d="M-0.799999 323V113H85.6C104.2 113 120.1 116 133.3 122C146.7 128 157 136.6 164.2 147.8C171.4 159 175 172.3 175 187.7C175 203.1 171.4 216.4 164.2 227.6C157 238.8 146.7 247.4 133.3 253.4C120.1 259.4 104.2 262.4 85.6 262.4H20.8L38.2 244.1V323H-0.799999ZM38.2 248.3L20.8 229.4H83.8C101 229.4 113.9 225.8 122.5 218.6C131.3 211.2 135.7 200.9 135.7 187.7C135.7 174.3 131.3 164 122.5 156.8C113.9 149.6 101 146 83.8 146H20.8L38.2 126.8V248.3ZM213.946 323V113H300.346C318.946 113 334.846 116 348.046 122C361.446 128 371.746 136.6 378.946 147.8C386.146 159 389.746 172.3 389.746 187.7C389.746 203.1 386.146 216.4 378.946 227.6C371.746 238.6 361.446 247.1 348.046 253.1C334.846 258.9 318.946 261.8 300.346 261.8H235.546L252.946 244.1V323H213.946ZM351.346 323L298.246 246.8H339.946L393.346 323H351.346ZM252.946 248.3L235.546 229.7H298.546C315.746 229.7 328.646 226 337.246 218.6C346.046 211.2 350.446 200.9 350.446 187.7C350.446 174.3 346.046 164 337.246 156.8C328.646 149.6 315.746 146 298.546 146H235.546L252.946 126.8V248.3ZM433.38 323V113H472.38V323H433.38ZM594.28 326C577.88 326 562.18 323.7 547.18 319.1C532.18 314.3 520.28 308.2 511.48 300.8L524.98 270.5C533.38 277.1 543.78 282.6 556.18 287C568.58 291.4 581.28 293.6 594.28 293.6C605.28 293.6 614.18 292.4 620.98 290C627.78 287.6 632.78 284.4 635.98 280.4C639.18 276.2 640.78 271.5 640.78 266.3C640.78 259.9 638.48 254.8 633.88 251C629.28 247 623.28 243.9 615.88 241.7C608.68 239.3 600.58 237.1 591.58 235.1C582.78 233.1 573.88 230.8 564.88 228.2C556.08 225.4 547.98 221.9 540.58 217.7C533.38 213.3 527.48 207.5 522.88 200.3C518.28 193.1 515.98 183.9 515.98 172.7C515.98 161.3 518.98 150.9 524.98 141.5C531.18 131.9 540.48 124.3 552.88 118.7C565.48 112.9 581.38 110 600.58 110C613.18 110 625.68 111.6 638.08 114.8C650.48 118 661.28 122.6 670.48 128.6L658.18 158.9C648.78 153.3 639.08 149.2 629.08 146.6C619.08 143.8 609.48 142.4 600.28 142.4C589.48 142.4 580.68 143.7 573.88 146.3C567.28 148.9 562.38 152.3 559.18 156.5C556.18 160.7 554.68 165.5 554.68 170.9C554.68 177.3 556.88 182.5 561.28 186.5C565.88 190.3 571.78 193.3 578.98 195.5C586.38 197.7 594.58 199.9 603.58 202.1C612.58 204.1 621.48 206.4 630.28 209C639.28 211.6 647.38 215 654.58 219.2C661.98 223.4 667.88 229.1 672.28 236.3C676.88 243.5 679.18 252.6 679.18 263.6C679.18 274.8 676.08 285.2 669.88 294.8C663.88 304.2 654.58 311.8 641.98 317.6C629.38 323.2 613.48 326 594.28 326ZM717.852 323V113H749.952L841.752 266.3H824.952L915.252 113H947.352L947.652 323H910.752L910.452 170.9H918.252L841.452 299H824.052L746.052 170.9H755.052V323H717.852Z" fill="black"/>
<mask id="mask0_10_1256" style="mask-type:alpha" maskUnits="userSpaceOnUse" x="-116" y="-54" width="1115" height="159">
<rect x="-116" y="-54" width="1115" height="159" fill="#D9D9D9"/>
</mask>
<g mask="url(#mask0_10_1256)">
<path d="M-39.8 249.121V39.1211H46.6C65.2 39.1211 81.1 42.1211 94.3 48.1211C107.7 54.1211 118 62.7211 125.2 73.9211C132.4 85.1211 136 98.4211 136 113.821C136 129.221 132.4 142.521 125.2 153.721C118 164.921 107.7 173.521 94.3 179.521C81.1 185.521 65.2 188.521 46.6 188.521H-18.2L-0.799998 170.221V249.121H-39.8ZM-0.799998 174.421L-18.2 155.521H44.8C62 155.521 74.9 151.921 83.5 144.721C92.3 137.321 96.7 127.021 96.7 113.821C96.7 100.421 92.3 90.1211 83.5 82.9211C74.9 75.7211 62 72.1211 44.8 72.1211H-18.2L-0.799998 52.9211V174.421ZM174.946 249.121V39.1211H261.346C279.946 39.1211 295.846 42.1211 309.046 48.1211C322.446 54.1211 332.746 62.7211 339.946 73.9211C347.146 85.1211 350.746 98.4211 350.746 113.821C350.746 129.221 347.146 142.521 339.946 153.721C332.746 164.721 322.446 173.221 309.046 179.221C295.846 185.021 279.946 187.921 261.346 187.921H196.546L213.946 170.221V249.121H174.946ZM312.346 249.121L259.246 172.921H300.946L354.346 249.121H312.346ZM213.946 174.421L196.546 155.821H259.546C276.746 155.821 289.646 152.121 298.246 144.721C307.046 137.321 311.446 127.021 311.446 113.821C311.446 100.421 307.046 90.1211 298.246 82.9211C289.646 75.7211 276.746 72.1211 259.546 72.1211H196.546L213.946 52.9211V174.421ZM394.38 249.121V39.1211H433.38V249.121H394.38ZM555.28 252.121C538.88 252.121 523.18 249.821 508.18 245.221C493.18 240.421 481.28 234.321 472.48 226.921L485.98 196.621C494.38 203.221 504.78 208.721 517.18 213.121C529.58 217.521 542.28 219.721 555.28 219.721C566.28 219.721 575.18 218.521 581.98 216.121C588.78 213.721 593.78 210.521 596.98 206.521C600.18 202.321 601.78 197.621 601.78 192.421C601.78 186.021 599.48 180.921 594.88 177.121C590.28 173.121 584.28 170.021 576.88 167.821C569.68 165.421 561.58 163.221 552.58 161.221C543.78 159.221 534.88 156.921 525.88 154.321C517.08 151.521 508.98 148.021 501.58 143.821C494.38 139.421 488.48 133.621 483.88 126.421C479.28 119.221 476.98 110.021 476.98 98.8211C476.98 87.4211 479.98 77.0211 485.98 67.6211C492.18 58.0211 501.48 50.4211 513.88 44.8211C526.48 39.0211 542.38 36.1211 561.58 36.1211C574.18 36.1211 586.68 37.7211 599.08 40.9211C611.48 44.1211 622.28 48.7211 631.48 54.7211L619.18 85.0211C609.78 79.4211 600.08 75.3211 590.08 72.7211C580.08 69.9211 570.48 68.5211 561.28 68.5211C550.48 68.5211 541.68 69.8211 534.88 72.4211C528.28 75.0211 523.38 78.4211 520.18 82.6211C517.18 86.8211 515.68 91.6211 515.68 97.0211C515.68 103.421 517.88 108.621 522.28 112.621C526.88 116.421 532.78 119.421 539.98 121.621C547.38 123.821 555.58 126.021 564.58 128.221C573.58 130.221 582.48 132.521 591.28 135.121C600.28 137.721 608.38 141.121 615.58 145.321C622.98 149.521 628.88 155.221 633.28 162.421C637.88 169.621 640.18 178.721 640.18 189.721C640.18 200.921 637.08 211.321 630.88 220.921C624.88 230.321 615.58 237.921 602.98 243.721C590.38 249.321 574.48 252.121 555.28 252.121ZM678.852 249.121V39.1211H710.952L802.752 192.421H785.952L876.252 39.1211H908.352L908.652 249.121H871.752L871.452 97.0211H879.252L802.452 225.121H785.052L707.052 97.0211H716.052V249.121H678.852ZM1048.29 249.121V39.1211H1087.29V216.121H1197.09V249.121H1048.29ZM1198.47 249.121L1292.97 39.1211H1331.37L1426.17 249.121H1385.37L1304.07 59.8211H1319.67L1238.67 249.121H1198.47ZM1241.97 200.521L1252.47 169.921H1365.87L1376.37 200.521H1241.97ZM1452.88 249.121V39.1211H1551.28C1576.48 39.1211 1595.68 44.1211 1608.88 54.1211C1622.08 63.9211 1628.68 77.1211 1628.68 93.7211C1628.68 104.921 1626.08 114.521 1620.88 122.521C1615.68 130.321 1608.68 136.421 1599.88 140.821C1591.28 145.021 1581.88 147.121 1571.68 147.121L1577.08 136.321C1588.88 136.321 1599.48 138.521 1608.88 142.921C1618.28 147.121 1625.68 153.321 1631.08 161.521C1636.68 169.721 1639.48 179.921 1639.48 192.121C1639.48 210.121 1632.58 224.121 1618.78 234.121C1604.98 244.121 1584.48 249.121 1557.28 249.121H1452.88ZM1491.88 218.521H1554.88C1569.48 218.521 1580.68 216.121 1588.48 211.321C1596.28 206.521 1600.18 198.821 1600.18 188.221C1600.18 177.821 1596.28 170.221 1588.48 165.421C1580.68 160.421 1569.48 157.921 1554.88 157.921H1488.88V127.621H1547.08C1560.68 127.621 1571.08 125.221 1578.28 120.421C1585.68 115.621 1589.38 108.421 1589.38 98.8211C1589.38 89.0211 1585.68 81.7211 1578.28 76.9211C1571.08 72.1211 1560.68 69.7211 1547.08 69.7211H1491.88V218.521Z" fill="black"/>
</g>
<mask id="mask1_10_1256" style="mask-type:alpha" maskUnits="userSpaceOnUse" x="-152" y="-98" width="1115" height="128">
<rect x="-152" y="-98" width="1115" height="128" fill="#D9D9D9"/>
</mask>
<g mask="url(#mask1_10_1256)">
<path d="M-75.8 202.758V-7.2422H10.6C29.2 -7.2422 45.1 -4.2422 58.3 1.75781C71.7 7.7578 82 16.3578 89.2 27.5578C96.4 38.7578 100 52.0578 100 67.4578C100 82.8578 96.4 96.1578 89.2 107.358C82 118.558 71.7 127.158 58.3 133.158C45.1 139.158 29.2 142.158 10.6 142.158H-54.2L-36.8 123.858V202.758H-75.8ZM-36.8 128.058L-54.2 109.158H8.80001C26 109.158 38.9 105.558 47.5 98.3578C56.3 90.9578 60.7 80.6578 60.7 67.4578C60.7 54.0578 56.3 43.7578 47.5 36.5578C38.9 29.3578 26 25.7578 8.80001 25.7578H-54.2L-36.8 6.5578V128.058ZM138.946 202.758V-7.2422H225.346C243.946 -7.2422 259.846 -4.2422 273.046 1.75781C286.446 7.7578 296.746 16.3578 303.946 27.5578C311.146 38.7578 314.746 52.0578 314.746 67.4578C314.746 82.8578 311.146 96.1578 303.946 107.358C296.746 118.358 286.446 126.858 273.046 132.858C259.846 138.658 243.946 141.558 225.346 141.558H160.546L177.946 123.858V202.758H138.946ZM276.346 202.758L223.246 126.558H264.946L318.346 202.758H276.346ZM177.946 128.058L160.546 109.458H223.546C240.746 109.458 253.646 105.758 262.246 98.3578C271.046 90.9578 275.446 80.6578 275.446 67.4578C275.446 54.0578 271.046 43.7578 262.246 36.5578C253.646 29.3578 240.746 25.7578 223.546 25.7578H160.546L177.946 6.5578V128.058ZM358.38 202.758V-7.2422H397.38V202.758H358.38ZM519.28 205.758C502.88 205.758 487.18 203.458 472.18 198.858C457.18 194.058 445.28 187.958 436.48 180.558L449.98 150.258C458.38 156.858 468.78 162.358 481.18 166.758C493.58 171.158 506.28 173.358 519.28 173.358C530.28 173.358 539.18 172.158 545.98 169.758C552.78 167.358 557.78 164.158 560.98 160.158C564.18 155.958 565.78 151.258 565.78 146.058C565.78 139.658 563.48 134.558 558.88 130.758C554.28 126.758 548.28 123.658 540.88 121.458C533.68 119.058 525.58 116.858 516.58 114.858C507.78 112.858 498.88 110.558 489.88 107.958C481.08 105.158 472.98 101.658 465.58 97.4578C458.38 93.0578 452.48 87.2578 447.88 80.0578C443.28 72.8578 440.98 63.6578 440.98 52.4578C440.98 41.0578 443.98 30.6578 449.98 21.2578C456.18 11.6578 465.48 4.0578 477.88 -1.5422C490.48 -7.3422 506.38 -10.2422 525.58 -10.2422C538.18 -10.2422 550.68 -8.6422 563.08 -5.44219C575.48 -2.24219 586.28 2.35781 595.48 8.35781L583.18 38.6578C573.78 33.0578 564.08 28.9578 554.08 26.3578C544.08 23.5578 534.48 22.1578 525.28 22.1578C514.48 22.1578 505.68 23.4578 498.88 26.0578C492.28 28.6578 487.38 32.0578 484.18 36.2578C481.18 40.4578 479.68 45.2578 479.68 50.6578C479.68 57.0578 481.88 62.2578 486.28 66.2578C490.88 70.0578 496.78 73.0578 503.98 75.2578C511.38 77.4578 519.58 79.6578 528.58 81.8578C537.58 83.8578 546.48 86.1578 555.28 88.7578C564.28 91.3578 572.38 94.7578 579.58 98.9578C586.98 103.158 592.88 108.858 597.28 116.058C601.88 123.258 604.18 132.358 604.18 143.358C604.18 154.558 601.08 164.958 594.88 174.558C588.88 183.958 579.58 191.558 566.98 197.358C554.38 202.958 538.48 205.758 519.28 205.758ZM642.852 202.758V-7.2422H674.952L766.752 146.058H749.952L840.252 -7.2422H872.352L872.652 202.758H835.752L835.452 50.6578H843.252L766.452 178.758H749.052L671.052 50.6578H680.052V202.758H642.852Z" fill="black"/>
</g>
</svg>
