<svg xmlns="http://www.w3.org/2000/svg" fill="none" viewBox="5 7.42 29.5 152.16">
<path fill-rule="evenodd" clip-rule="evenodd" d="M5.5 83.4999L5.5 32.7649L34 8.50024L34 83.5L34 83.5003L34 158.5L5.5 134.235L5.5 83.4999Z" fill="#68278A"/>
<path d="M5.5 32.7649L5.17587 32.3842L5 32.5339L5 32.7649L5.5 32.7649ZM5.5 83.4999L5 83.4999L5.5 83.4999ZM34 8.50024L34.5 8.50024L34.5 7.41788L33.6759 8.11954L34 8.50024ZM34 83.5L34.5 83.5L34 83.5ZM34 83.5003L33.5 83.5003L34 83.5003ZM34 158.5L33.6759 158.881L34.5 159.582L34.5 158.5L34 158.5ZM5.5 134.235L5 134.235L5 134.466L5.17587 134.616L5.5 134.235ZM5 32.7649L5 83.4999L6 83.4999L6 32.7649L5 32.7649ZM33.6759 8.11954L5.17587 32.3842L5.82413 33.1456L34.3241 8.88095L33.6759 8.11954ZM34.5 83.5L34.5 8.50024L33.5 8.50024L33.5 83.5L34.5 83.5ZM33.5 83.5L33.5 83.5003L34.5 83.5003L34.5 83.5L33.5 83.5ZM33.5 83.5003L33.5 158.5L34.5 158.5L34.5 83.5003L33.5 83.5003ZM34.3241 158.119L5.82413 133.855L5.17587 134.616L33.6759 158.881L34.3241 158.119ZM6 134.235L6 83.4999L5 83.4999L5 134.235L6 134.235Z" fill="black"/>
<path d="M25.5 100.143L15 104.763L15 103.143L24.69 98.8976L24.69 99.8276L15 95.5526L15 94.0526L25.5 98.6576L25.5 100.143ZM25.5 92.7136L15 92.7136L15 91.2136L25.5 91.2136L25.5 92.7136ZM25.5 85.1426L15 89.7626L15 88.1426L24.69 83.8976L24.69 84.8276L15 80.5526L15 79.0526L25.5 83.6576L25.5 85.1426ZM25.5 77.7136L15 77.7136L15 76.2136L25.5 76.2136L25.5 77.7136ZM25.5 73.07L15 73.07L15 68.645C15 67.525 15.22 66.54 15.66 65.69C16.1 64.83 16.715 64.165 17.505 63.695C18.295 63.215 19.21 62.975 20.25 62.975C21.29 62.975 22.205 63.215 22.995 63.695C23.785 64.165 24.4 64.83 24.84 65.69C25.28 66.54 25.5 67.525 25.5 68.645L25.5 73.07ZM24.195 71.57L24.195 68.735C24.195 67.865 24.03 67.115 23.7 66.485C23.37 65.845 22.91 65.35 22.32 65C21.72 64.65 21.03 64.475 20.25 64.475C19.46 64.475 18.77 64.65 18.18 65C17.59 65.35 17.13 65.845 16.8 66.485C16.47 67.115 16.305 67.865 16.305 68.735L16.305 71.57L24.195 71.57Z" fill="white"/>
</svg>